<?xml version="1.0" encoding="utf-8"?>
<!-- Generator: Adobe Illustrator 22.0.1, SVG Export Plug-In . SVG Version: 6.00 Build 0)  -->
<svg version="1.1" id="Layer_1" xmlns="http://www.w3.org/2000/svg" xmlns:xlink="http://www.w3.org/1999/xlink" x="0px" y="0px"
	 viewBox="0 0 2941.5 1080" style="enable-background:new 0 0 2941.5 1080;" xml:space="preserve">
<style type="text/css">
	.st0{fill:none;stroke:#FFFFFF;stroke-width:7;stroke-linecap:round;stroke-linejoin:round;}
	.st1{fill:none;stroke:#46A5DE;stroke-width:3;stroke-linecap:round;stroke-linejoin:round;stroke-dasharray:15,15,1,15;}
	.st2{fill:#85909E;}
	.st3{fill:#E6F7FF;}
	.st4{fill:#DFE4EA;}
	.st5{fill:#687482;}
	.st6{fill:#6B7682;}
	.st7{fill:#4E565E;}
	.st8{fill:url(#SVGID_1_);}
	.st9{fill:#383D43;}
	.st10{fill:url(#SVGID_2_);}
	.st11{fill:url(#SVGID_3_);}
	.st12{fill:url(#SVGID_4_);}
	.st13{fill:url(#SVGID_5_);}
	.st14{fill:#616E7C;}
	.st15{fill:url(#SVGID_6_);}
	.st16{fill:url(#SVGID_7_);}
	.st17{fill:url(#SVGID_8_);}
	.st18{fill:url(#SVGID_9_);}
	.st19{fill:url(#SVGID_10_);}
	.st20{fill:url(#SVGID_11_);}
	.st21{fill:url(#SVGID_12_);}
	.st22{fill:url(#SVGID_13_);}
	.st23{fill:url(#SVGID_14_);}
	.st24{fill:url(#SVGID_15_);}
	.st25{fill:url(#SVGID_16_);}
	.st26{fill:url(#SVGID_17_);}
	.st27{fill:url(#SVGID_18_);}
	.st28{fill:url(#SVGID_19_);}
	.st29{fill:url(#SVGID_20_);}
	.st30{fill:url(#SVGID_21_);}
	.st31{fill:none;stroke:#6B7682;stroke-width:5;stroke-miterlimit:10;}
	.st32{fill:#778591;}
	.st33{fill:#A3AEB7;}
	.st34{fill:#F5FCFF;}
	.st35{opacity:0.5;fill:#9DDBFD;enable-background:new    ;}
	.st36{fill:none;stroke:#FFFFFF;stroke-width:3;stroke-linecap:round;stroke-linejoin:round;}
	.st37{fill:#FFFFFF;stroke:#FFFFFF;stroke-width:3;stroke-linecap:round;stroke-linejoin:round;}
	.st38{fill:#B8C2CC;}
	.st39{fill:#626E7C;}
	.st40{fill:#B0BAC6;}
	.st41{fill:none;stroke:#4E565E;stroke-width:3;stroke-linecap:round;stroke-miterlimit:10;}
	.st42{fill:url(#SVGID_22_);}
	.st43{fill:url(#SVGID_23_);}
	.st44{fill:#46A5DE;}
	.st45{fill:url(#SVGID_24_);}
	.st46{fill:#236995;}
	.st47{fill:url(#SVGID_25_);}
	.st48{fill:url(#SVGID_26_);}
	.st49{fill:url(#SVGID_27_);}
	.st50{fill:url(#SVGID_28_);}
	.st51{fill:#9DDBFD;}
	.st52{fill:url(#SVGID_29_);}
	.st53{fill:url(#SVGID_30_);}
	.st54{fill:#D4EBF4;}
	.st55{fill:url(#SVGID_31_);}
	.st56{fill:url(#SVGID_32_);}
	.st57{fill:url(#SVGID_33_);}
	.st58{fill:#B0B9C1;}
	.st59{fill:#BFCED8;}
	.st60{fill:url(#SVGID_34_);}
	.st61{fill:url(#SVGID_35_);}
	.st62{fill:url(#SVGID_36_);}
	.st63{fill:url(#SVGID_37_);}
	.st64{fill:#3495C6;}
	.st65{fill:#5CBAEA;}
	.st66{fill:#C3D9E2;}
	.st67{fill:url(#SVGID_38_);}
	.st68{fill:url(#SVGID_39_);}
	.st69{fill:url(#SVGID_40_);}
	.st70{fill:url(#SVGID_41_);}
	.st71{fill:url(#SVGID_42_);}
	.st72{fill:#8F979E;}
	.st73{fill:url(#SVGID_43_);}
	.st74{fill:url(#SVGID_44_);}
	.st75{fill:url(#SVGID_45_);}
	.st76{fill:url(#SVGID_46_);}
	.st77{fill:url(#SVGID_47_);}
	.st78{fill:#FFFFFF;}
	.st79{fill:#46A5DE;stroke:#FFFFFF;stroke-width:3;stroke-linecap:round;stroke-linejoin:round;}
</style>
<title>3</title>
<line class="st0" x1="265.6" y1="213.5" x2="572.4" y2="391.3"/>
<line class="st1" x1="265.6" y1="213.5" x2="572.4" y2="391.3"/>
<line class="st0" x1="2527.9" y1="833" x2="2700.1" y2="933"/>
<line class="st1" x1="2527.9" y1="833" x2="2700.1" y2="933"/>
<polygon class="st2" points="1895,606.8 1872.3,593.8 1874.8,592.3 1896.3,604.6 "/>
<polygon class="st3" points="1685.8,612.8 2261.9,280.2 2837.4,612.7 2261.6,945.2 "/>
<polygon class="st2" points="2837.4,612.6 2261.6,945.1 2261.6,967.2 2837.4,634.8 "/>
<polygon class="st4" points="1685.8,612.8 2261.6,945.1 2261.6,967.2 1685.8,634.9 "/>
<polygon class="st5" points="2484.1,833.4 2484.1,816.8 2486.6,815.3 2486.6,829 2569.1,781.4 2569.3,767.6 2571.6,766.3 
	2571.7,782.8 "/>
<polygon class="st4" points="2434.3,477.9 2434.3,455.7 2683.8,599.8 2683.8,621.9 "/>
<polygon class="st6" points="1839.7,612.6 2261.9,368.8 2684,612.5 2261.8,856.3 2089.3,756.7 2070,745.5 2031.7,723.4 "/>
<path class="st2" d="M2474.3,587.1h-2.6v-44.4c0-0.5,0.2-0.9,0.6-1.1l44.4-25.7l2.6,1.5l-45.1,26V587.1z"/>
<path class="st2" d="M2140.9,634.9l0.2-38c0-2-1.1-3.8-2.8-4.9l-131.6-75.8l-27.3,15.7l131.7,75.9c1.7,1,2.7,2.8,2.7,4.8v15.7
	c0,2,1.1,3.8,2.8,4.8l13.5,7.9c1.7,1,3.9,1,5.6,0l2.4-1.4C2139.8,638.7,2140.9,636.9,2140.9,634.9z"/>
<path class="st2" d="M2244.4,601.4h54.4c1,0,1.9-0.3,2.8-0.7l0,0c2.7-1.5,3.6-4.9,2.1-7.6c-0.5-0.9-1.2-1.6-2.1-2.1l-36.8-21.3
	c-1.7-1-3.9-1-5.6,0l-27.2,15.8c-2.7,1.5-3.6,4.9-2,7.6c0.5,0.8,1.2,1.5,2,2l9.6,5.4C2242.4,601.2,2243.4,601.4,2244.4,601.4z"/>
<path class="st2" d="M2684,612.6l-49-28.3c-2.7-1.5-6.1-0.6-7.6,2.1c-0.5,0.8-0.7,1.8-0.7,2.7v20.4c0,2-1.1,3.8-2.8,4.8l-197.5,114
	c-0.8,0.5-1.8,0.8-2.8,0.8h-35.2c-1,0-1.9-0.3-2.8-0.8l-5.7-3.3c-1.7-1-2.8-2.8-2.8-4.8v-15.7c0-2-1.1-3.8-2.8-4.8l-65.5-37.9
	c-2.7-1.5-3.6-4.9-2-7.6c0.5-0.8,1.2-1.5,2-2l123.3-71.1c1.7-1,2.8-2.8,2.8-4.8v-15.9c0-2,1.1-3.8,2.8-4.8l52-29.7
	c1.7-1,2.8-2.8,2.8-4.8v-19l-57.7-33.3l-16.4,9.6c-1.7,1-2.7,2.8-2.8,4.8l-0.2,60c0,2-1.1,3.8-2.8,4.8l-4,2.3
	c-1.7,1-2.8,2.8-2.8,4.8v26.8c0,2-1.1,3.8-2.8,4.8l-82.2,47.6c-0.8,0.5-1.8,0.7-2.8,0.7h-54.5c-1,0-1.9,0.3-2.8,0.8l-72.7,42
	c-1.7,1-2.8,2.8-2.8,4.8l-0.1,37.8c0,2-1.1,3.8-2.8,4.8l-15.2,8.8c-0.9,0.5-1.8,0.8-2.8,0.8h-17.7v-0.1h-37c-1,0-1.9,0.3-2.8,0.8
	l-27.4,16l105.5,60.9v-16.6c0-3.1,2.5-5.6,5.6-5.6h31.2c1,0,1.9,0.3,2.8,0.8l75,43.8l96.2-55.4l19.2-11.1l19.2-11.1l192-111.1
	l19.2-11.1l19.3-11.1L2684,612.6z"/>
<path class="st2" d="M2126.1,676.1l5.7-3.3c1.7-1,2.8-2.8,2.8-4.8v-7.4c0-2-1.1-3.8-2.8-4.8l-27-15.6c-1.7-1-2.8-2.8-2.8-4.8v-15.7
	c0-2-1.1-3.8-2.8-4.8l-128.9-74.3l-28,16.2l137.7,79.4c2.7,1.5,3.6,4.9,2,7.6c-0.5,0.8-1.2,1.6-2,2l-46.5,26.8
	c-1.7,1-2.8,2.8-2.8,4.8v21.2c0,2-1.1,3.8-2.8,4.8l-15.3,8.9l26.1,15l15.4-8.9c1.7-1,2.8-2.8,2.8-4.8V698c0-2,1.1-3.8,2.8-4.8
	l27.2-15.6c0.8-0.5,1.8-0.7,2.8-0.7h33.4C2124.2,676.9,2125.2,676.6,2126.1,676.1z"/>
<path class="st2" d="M2052.1,735.2l-2.6-1.5l19.2-11.1v-28.3c0-0.5,0.3-0.9,0.7-1.1l19.2-10.9c0.2-0.1,0.4-0.2,0.6-0.2h38l12.5-7.1
	v-20.7l-31.9-18.4c-0.4-0.2-0.6-0.7-0.6-1.1v-21.4l-95.1-54.9l1.3-2.2l95.7,55.4c0.4,0.2,0.6,0.6,0.6,1.1V634l31.9,18.4
	c0.4,0.2,0.6,0.6,0.6,1.1v22.2c0,0.5-0.2,0.9-0.6,1.1l-13.4,7.7c-0.2,0.1-0.4,0.2-0.6,0.2h-38l-18.2,10.4v28.3
	c0,0.5-0.2,0.9-0.6,1.1L2052.1,735.2z"/>
<polygon class="st3" points="2356.9,645.2 2346.9,639.4 2320.9,654.4 2330.9,660.2 "/>
<polygon class="st3" points="2414.4,612 2404.4,606.2 2378.5,621.2 2388.5,627 "/>
<polygon class="st3" points="2472,578.8 2462,573 2436,588 2446,593.8 "/>
<polygon class="st3" points="2529.6,545.5 2519.6,539.7 2493.6,554.7 2503.7,560.5 "/>
<polygon class="st3" points="2444.7,696 2434.7,690.2 2408.7,705.2 2418.8,711 "/>
<polygon class="st3" points="2502.3,662.7 2492.3,656.9 2466.3,671.9 2476.3,677.7 "/>
<polygon class="st3" points="2559.8,629.5 2549.8,623.7 2523.8,638.7 2533.9,644.5 "/>
<polygon class="st3" points="2617.4,596.2 2607.4,590.4 2581.4,605.4 2591.5,611.2 "/>
<polygon class="st2" points="2581.5,575.4 2607.4,560.5 2607.4,590.4 2581.5,605.4 "/>
<polygon class="st4" points="2503.7,530.5 2581.5,575.4 2581.5,605.4 2503.7,560.5 "/>
<polygon class="st3" points="2607.4,560.5 2529.6,515.5 2503.7,530.5 2581.5,575.4 "/>
<polygon class="st7" points="2516.6,567.9 2516.6,538 2568.5,567.9 2568.5,597.9 "/>
<polygon class="st2" points="2542.6,523 2594.5,553 2568.5,568 2516.6,538 "/>
<polygon class="st2" points="2523.8,608.8 2549.8,593.8 2549.8,623.7 2523.8,638.7 "/>
<polygon class="st4" points="2446,563.8 2523.8,608.8 2523.8,638.7 2446,593.8 "/>
<polygon class="st3" points="2549.8,593.8 2472,548.9 2446,563.8 2523.8,608.8 "/>
<polygon class="st7" points="2459,601.3 2459,571.3 2510.9,601.3 2510.9,631.2 "/>
<polygon class="st2" points="2484.9,556.4 2536.8,586.3 2510.9,601.3 2459,571.3 "/>
<polygon class="st2" points="2466.3,641.9 2492.3,627 2492.3,656.9 2466.3,671.9 "/>
<polygon class="st4" points="2388.5,597 2466.3,641.9 2466.3,671.9 2388.5,627 "/>
<polygon class="st3" points="2492.3,627 2414.5,582 2388.5,597 2466.3,641.9 "/>
<polygon class="st7" points="2401.5,634.4 2401.5,604.5 2453.4,634.4 2453.3,664.4 "/>
<polygon class="st2" points="2427.4,589.5 2479.3,619.5 2453.4,634.5 2401.5,604.5 "/>
<polygon class="st2" points="2408.7,675.2 2434.7,660.2 2434.7,690.2 2408.7,705.2 "/>
<polygon class="st4" points="2330.9,630.3 2408.7,675.2 2408.7,705.2 2330.9,660.2 "/>
<polygon class="st3" points="2434.7,660.2 2356.9,615.3 2330.9,630.3 2408.7,675.2 "/>
<polygon class="st7" points="2343.9,667.7 2343.9,637.8 2395.8,667.7 2395.8,697.7 "/>
<polygon class="st2" points="2369.8,622.8 2421.7,652.7 2395.8,667.7 2343.9,637.8 "/>
<path class="st3" d="M1912,607l-9.9-5.7c-1.4-0.8-3.2-0.8-4.6,0l-9.9,5.7c-0.8,0.4-1,1.4-0.6,2.2c0.1,0.2,0.3,0.4,0.6,0.6l9.9,5.7
	c1.4,0.8,3.2,0.8,4.6,0l9.9-5.7c0.8-0.4,1-1.4,0.6-2.2C1912.5,607.3,1912.3,607.1,1912,607z"/>
<linearGradient id="SVGID_1_" gradientUnits="userSpaceOnUse" x1="1962.2998" y1="539.9919" x2="2010.6675" y2="456.2201" gradientTransform="matrix(1 0 0 -1 0 1080)">
	<stop  offset="0" style="stop-color:#616E7C"/>
	<stop  offset="0.58" style="stop-color:#616E7C"/>
	<stop  offset="0.87" style="stop-color:#383D43"/>
	<stop  offset="1" style="stop-color:#383D43"/>
</linearGradient>
<path class="st8" d="M1980,641.5l77.8-45v-15c0,0,0-15-13-22.5c-13-7.5-51.8-29.9-51.8-29.9s-6.1-3.5-10.2-0.9
	c-4.1,2.6-77,44.6-77,44.6l9.5,16.4L1967,619l0.1,15L1980,641.5z"/>
<polygon class="st7" points="1980,671.4 1980,626.5 1902.2,581.5 1902.2,626.5 "/>
<polygon class="st9" points="2057.8,581.6 2057.8,626.4 1980,671.4 1980,626.4 "/>
<path class="st7" d="M1902.2,581.5c0,0-0.1-15,13-7.5c13.1,7.5,51.9,30,51.9,30s12.9,7.4,13,22.4v15l-77.8-45L1902.2,581.5z"/>
<linearGradient id="SVGID_2_" gradientUnits="userSpaceOnUse" x1="2004.9476" y1="462.7761" x2="2034.3035" y2="411.9207" gradientTransform="matrix(1 0 0 -1 0 1080)">
	<stop  offset="0" style="stop-color:#E6F7FF"/>
	<stop  offset="3.000000e-02" style="stop-color:#E1F2FA"/>
	<stop  offset="0.28" style="stop-color:#85909E"/>
	<stop  offset="0.65" style="stop-color:#85909E"/>
	<stop  offset="0.89" style="stop-color:#E6F7FF"/>
</linearGradient>
<path class="st10" d="M2042.5,660.6l-9.9-5.7c-1.4-0.8-3.2-0.8-4.6,0l-1.5,0.8l-5.7-3.3v-28.1c0,0,0-8.1-7.1-12.2l-7.1,4.1
	c0,0,7.1,4.1,7.1,12.2v28.1l0,0l5.7,3.3l-1.4,0.8c-0.8,0.4-1,1.4-0.6,2.2c0.1,0.2,0.3,0.4,0.6,0.6l9.9,5.7c1.4,0.8,3.2,0.8,4.6,0
	l9.9-5.7c0.8-0.4,1-1.4,0.6-2.2C2042.9,661,2042.7,660.8,2042.5,660.6z"/>
<linearGradient id="SVGID_3_" gradientUnits="userSpaceOnUse" x1="2023.7179" y1="473.6811" x2="2053.0789" y2="422.8389" gradientTransform="matrix(1 0 0 -1 0 1080)">
	<stop  offset="0" style="stop-color:#E6F7FF"/>
	<stop  offset="3.000000e-02" style="stop-color:#E1F2FA"/>
	<stop  offset="0.28" style="stop-color:#85909E"/>
	<stop  offset="0.65" style="stop-color:#85909E"/>
	<stop  offset="0.89" style="stop-color:#E6F7FF"/>
</linearGradient>
<path class="st11" d="M2039.6,620.2v-6.8c0,0,0-8.2-7.1-12.2l-7.1,4.1c0,0,7.1,4.1,7.1,12.2v28.1l0,0l5.7,3.3l-1.4,0.8
	c-0.8,0.5-1,1.4-0.6,2.2c0.1,0.2,0.3,0.4,0.6,0.6l9.9,5.7c1.4,0.8,3.2,0.8,4.6,0l9.9-5.7c0.8-0.4,1-1.4,0.6-2.1
	c-0.1-0.2-0.3-0.5-0.6-0.6l-9.9-5.7c-1.4-0.8-3.2-0.8-4.6,0l-1.5,0.8l-5.7-3.3V620.2z"/>
<linearGradient id="SVGID_4_" gradientUnits="userSpaceOnUse" x1="2042.4476" y1="484.5404" x2="2071.8145" y2="433.6659" gradientTransform="matrix(1 0 0 -1 0 1080)">
	<stop  offset="0" style="stop-color:#E6F7FF"/>
	<stop  offset="3.000000e-02" style="stop-color:#E1F2FA"/>
	<stop  offset="0.28" style="stop-color:#85909E"/>
	<stop  offset="0.65" style="stop-color:#85909E"/>
	<stop  offset="0.89" style="stop-color:#E6F7FF"/>
</linearGradient>
<path class="st12" d="M2058.3,609.4v-6.8c0,0,0-8.2-7.1-12.2l-7.1,4.1c0,0,7.1,4.1,7.1,12.2c0,3.7,0-2.9,0-1.8v30l0,0l5.7,3.3
	l-1.4,0.8c-0.8,0.4-1,1.4-0.6,2.1c0.1,0.2,0.3,0.5,0.6,0.6l9.9,5.7c1.4,0.8,3.2,0.8,4.6,0l9.9-5.7c0.8-0.4,1-1.4,0.6-2.2
	c-0.1-0.2-0.3-0.4-0.6-0.6l-9.9-5.7c-1.4-0.8-3.2-0.8-4.6,0l-1.5,0.8l-5.7-3.3L2058.3,609.4z"/>
<linearGradient id="SVGID_5_" gradientUnits="userSpaceOnUse" x1="1986.1592" y1="451.9993" x2="2015.5182" y2="401.1605" gradientTransform="matrix(1 0 0 -1 0 1080)">
	<stop  offset="0" style="stop-color:#E6F7FF"/>
	<stop  offset="3.000000e-02" style="stop-color:#E1F2FA"/>
	<stop  offset="0.28" style="stop-color:#85909E"/>
	<stop  offset="0.65" style="stop-color:#85909E"/>
	<stop  offset="0.89" style="stop-color:#E6F7FF"/>
</linearGradient>
<path class="st13" d="M2002.1,641.9v-6.8c0,0,0-8.2-7.1-12.2l-7.1,4.1c0,0,7.1,4.1,7.1,12.2v28.1l0,0l5.7,3.3l-1.4,0.8
	c-0.8,0.4-1,1.4-0.6,2.1c0.1,0.2,0.3,0.5,0.6,0.6l9.9,5.7c1.4,0.8,3.2,0.8,4.6,0l9.9-5.7c0.8-0.4,1-1.4,0.6-2.1
	c-0.1-0.2-0.3-0.5-0.6-0.6l-9.9-5.7c-1.4-0.8-3.2-0.8-4.6,0l-1.5,0.8l-5.7-3.3V641.9z"/>
<path class="st2" d="M2071.4,746.3l-2.6-1.5l38.9-22.7c0.2-0.1,0.4-0.2,0.6-0.2l0,0l38.1,0.2l18.2-10.6V668c0-0.5,0.2-0.9,0.6-1.1
	l76.9-44.4c0.2-0.1,0.4-0.2,0.6-0.2h76.4l75.8-43.8v-35h2.6v35.8c0,0.5-0.2,0.9-0.6,1.1l-76.7,44.3c-0.2,0.1-0.4,0.2-0.6,0.2h-76.4
	l-76,43.8v43.6c0,0.5-0.2,0.9-0.6,1.1l-19.2,11.1c-0.2,0.1-0.4,0.2-0.6,0.2l-38.1-0.2L2071.4,746.3z"/>
<path class="st2" d="M2064.7,742.4l-2.6-1.5l45.6-26.2c0.2-0.1,0.4-0.2,0.6-0.2h38.1l11.6-6.8v-43.6c0-0.5,0.2-0.9,0.6-1.1
	l83.4-48.1c0.2-0.1,0.4-0.2,0.6-0.2l76.5-0.8l29.6-17.7v-21.4h2.6V597c0,0.5-0.2,0.9-0.6,1.1l-30.5,18.3c-0.2,0.1-0.4,0.2-0.7,0.2
	l-76.5,0.8l-82.4,47.5v43.6c0,0.5-0.2,0.9-0.6,1.1l-12.6,7.3c-0.2,0.1-0.4,0.2-0.6,0.2h-38.1L2064.7,742.4z"/>
<path class="st2" d="M2107.1,710.4l-1.3-2.2l1.9-1.1c0.2-0.1,0.4-0.2,0.6-0.2h38.1l5.1-3.1v-43.6c0-0.5,0.2-0.9,0.6-1.1l51-29.5
	v-40.9h2.6v41.6c0,0.5-0.2,0.9-0.6,1.1l-51,29.5v43.5c0,0.4-0.2,0.9-0.6,1.1l-6,3.6c-0.2,0.1-0.4,0.2-0.7,0.2h-38.1L2107.1,710.4z"
	/>
<g>
	<path class="st2" d="M2106.8,698.9c-5.5-3.2-14.5-3.2-20,0c-5.5,3.2-5.5,8.4,0,11.6c5.5,3.2,14.5,3.2,20,0
		C2112.3,707.3,2112.3,702.1,2106.8,698.9"/>
</g>
<path class="st2" d="M2139.2,766.3c-0.6,0.1-1.3,0.2-2,0.2c-1.5,0-2.9-0.3-4.2-1c-1.8-0.7-2.6-2.7-1.9-4.5c0.3-0.9,1-1.6,1.9-1.9
	c2.6-1.4,5.8-1.4,8.4,0c1,0.5,1.8,1.4,2.1,2.6c0.1,0.4,0.1,0.9,0,1.3l55.7,32.2l-2.6,4.4L2139.2,766.3z M2136.3,762.3
	c0.3,0.1,0.6,0.2,1,0.2c0.3,0,0.6-0.1,0.9-0.2c-0.3-0.1-0.6-0.2-1-0.2C2136.9,762.2,2136.6,762.2,2136.3,762.3z"/>
<path class="st6" d="M2137.2,759.5c1.2,0,2.5,0.3,3.6,0.9c1.5,0.9,1.9,2.1,1.1,3.2l55.6,32.1l-1.3,2.2l-56.8-32.9
	c-0.7,0.2-1.4,0.3-2.2,0.3c-1.2,0-2.5-0.3-3.6-0.9c-2-1.1-2-3,0-4.1C2134.8,759.7,2136.1,759.4,2137.2,759.5 M2137.3,763.8
	c0.6,0,1.2-0.1,1.8-0.4c0.6-0.2,0.9-0.8,0.7-1.4c-0.1-0.3-0.3-0.5-0.7-0.7c-1.1-0.6-2.4-0.6-3.5,0c-0.6,0.2-0.9,0.8-0.7,1.4
	c0.1,0.3,0.3,0.5,0.7,0.7C2136.1,763.7,2136.7,763.8,2137.3,763.8 M2137.3,756.9c-1.7,0-3.4,0.4-4.8,1.2c-1.6,0.8-2.7,2.5-2.7,4.3
	c0.1,1.8,1.1,3.5,2.8,4.3c1.5,0.8,3.1,1.2,4.8,1.2c0.6,0,1.2,0,1.7-0.1l56,32.3l2.2,1.3l1.3-2.2l1.3-2.2l1.3-2.2l-2.2-1.3l-54-31.1
	c0-0.3,0-0.5-0.1-0.8c-0.4-1.5-1.3-2.7-2.7-3.4C2140.7,757.3,2139,756.8,2137.3,756.9L2137.3,756.9z"/>
<rect x="2053.1" y="467.5" transform="matrix(0.8661 -0.4998 0.4998 0.8661 47.9905 1116.6743)" class="st2" width="110.8" height="2.6"/>
<path class="st2" d="M2058,738.6l-2.6-1.5l19.2-11.1v-28.2c0-0.5,0.2-0.9,0.6-1.1l13.3-7.7c0.2-0.1,0.4-0.2,0.6-0.2h38l18.3-10.5
	v-87.2l-18.6-10.7c-0.4-0.2-0.6-0.6-0.6-1.1v-35.8h2.6v35l18.6,10.7c0.4,0.2,0.6,0.7,0.6,1.1v88.7c0,0.5-0.2,0.9-0.6,1.1l-19.3,11.1
	c-0.2,0.1-0.4,0.2-0.6,0.2h-38l-12.4,7.1v28.2c0,0.5-0.2,0.9-0.6,1.1L2058,738.6z"/>
<polygon class="st14" points="2170.2,740 2292.5,669.3 2369.2,713.5 2246.6,784.3 "/>
<path class="st9" d="M2246.6,791.8v-7.5l122.6-70.8v7.7L2246.6,791.8z"/>
<polygon class="st7" points="2170.2,740 2246.6,784.3 2246.6,791.8 2170.2,747.6 "/>
<g>
	<polygon class="st3" points="2269.8,690 2269.8,700.7 2269.4,700.9 2269.4,690.3 	"/>
	<polygon class="st3" points="2269.4,690.3 2269.4,700.9 2264.3,704 2264.4,693.3 	"/>
	<path class="st3" d="M2325.5,703.5v10.7c0-4.9-3.2-9.7-9.6-13.4c-12.8-7.4-33.4-7.4-46.1,0V690c12.7-7.3,33.3-7.4,46.1,0
		C2322.3,693.7,2325.5,698.6,2325.5,703.5z"/>
	<polygon class="st3" points="2264.4,693.3 2264.3,704 2225.6,726.4 2225.7,715.7 	"/>
	<path class="st3" d="M2325.5,714.2c0,4.8-3.2,9.6-9.4,13.2v-10.7c6.3-3.7,9.4-8.4,9.5-13.2C2325.5,706.7,2325.5,710.9,2325.5,714.2
		z"/>
	<polygon class="st3" points="2316.1,716.7 2316,727.4 2310.4,730.6 2310.4,719.9 	"/>
	<path class="st3" d="M2216.2,739.6v-10.7c0-4.8,3.2-9.6,9.5-13.2v10.7C2219.4,730,2216.2,734.8,2216.2,739.6z"/>
	<path class="st3" d="M2216.8,743.3c-0.4-1.2-0.6-2.4-0.6-3.7v-10.7c0,1.3,0.2,2.5,0.6,3.7C2216.8,736.2,2216.8,739.7,2216.8,743.3z
		"/>
	<polygon class="st3" points="2310.4,719.9 2310.4,730.6 2271.9,753.1 2271.9,742.4 	"/>
	<path class="st3" d="M2225.8,753.1c-4.8-2.8-7.8-6.2-8.9-9.7c0-3.6,0-7.1,0-10.7c1.3,3.6,4.2,7,8.9,9.7c12.8,7.4,33.4,7.4,46.1,0
		v10.7C2259.2,760.4,2238.5,760.4,2225.8,753.1z"/>
	
		<linearGradient id="SVGID_6_" gradientUnits="userSpaceOnUse" x1="2201.8518" y1="344.7743" x2="2339.9304" y2="344.7743" gradientTransform="matrix(1 0 0 -1 0 1080)">
		<stop  offset="0.19" style="stop-color:#DFE4EA"/>
		<stop  offset="0.56" style="stop-color:#85909E"/>
		<stop  offset="1" style="stop-color:#85909E"/>
	</linearGradient>
	<path class="st15" d="M2330.6,719.8l-3.9,2.6l-0.4,0.2l-0.5,0.3l-43.7,25.4c-18.3,10.6-48.1,10.6-66.4,0
		c-9.2-5.3-13.9-12.4-13.8-19.4v10.7c0,7,4.6,14.1,13.9,19.4c18.4,10.6,48.2,10.6,66.4,0l43.7-25.4l0.5-0.3l0.4-0.2l3.9-2.6
		c6.2-4.8,9.3-10.5,9.4-16.3v-10.7C2339.9,709.2,2336.8,715,2330.6,719.8z"/>
	<path class="st3" d="M2330.6,719.8l-3.9,2.6l-0.4,0.2l-0.5,0.3l-43.7,25.4c-18.3,10.6-48.1,10.6-66.4,0
		c-18.4-10.6-18.5-27.9-0.2-38.5c0.2-0.1,0.4-0.2,0.5-0.3l43.2-25.1l0.4-0.2l0.7-0.4l3.8-2.2l0.3,0.2c18.4-8,44.7-7.2,61.6,2.6
		C2342.9,694,2344.4,709.2,2330.6,719.8L2330.6,719.8z M2310.5,719.9l5.6-3.2c12.7-7.3,12.6-19.3-0.2-26.7
		c-12.8-7.4-33.4-7.3-46.1,0l-0.4,0.2l-5.1,3.1l-38.7,22.4c-12.7,7.4-12.6,19.3,0.2,26.7c12.8,7.4,33.4,7.4,46.1,0L2310.5,719.9"/>
	<path class="st3" d="M2315.9,690c12.8,7.4,12.8,19.3,0.2,26.7l-5.6,3.2l-38.5,22.5c-12.7,7.4-33.3,7.4-46.1,0
		c-12.7-7.4-12.8-19.3-0.2-26.7l38.6-22.4l5.1-3l0.4-0.2C2282.5,682.7,2303.1,682.7,2315.9,690z"/>
</g>
<g>
	
		<linearGradient id="SVGID_7_" gradientUnits="userSpaceOnUse" x1="2212.9153" y1="374.0208" x2="2328.5088" y2="374.0208" gradientTransform="matrix(1 0 0 -1 0 1080)">
		<stop  offset="0.19" style="stop-color:#DFE4EA"/>
		<stop  offset="0.56" style="stop-color:#85909E"/>
		<stop  offset="1" style="stop-color:#85909E"/>
	</linearGradient>
	<path class="st16" d="M2317.7,679.5l-0.5,0.2l-40.7,23.7c-14.5,8.4-38,8.4-52.5,0c-7.3-4.2-11-9.8-11-15.3l-0.1,37.9
		c0,5.5,3.6,11.1,11,15.3c14.6,8.4,38.1,8.4,52.5,0l40.7-23.7l0.5-0.3c7.2-4.2,10.8-9.6,10.8-15.1l0.1-37.9
		C2328.5,669.8,2324.9,675.3,2317.7,679.5z"/>
	<path class="st3" d="M2317.5,649c14.6,8.4,14.6,22,0.2,30.4l-0.5,0.2l-40.7,23.7c-14.5,8.4-38,8.4-52.5,0
		c-14.6-8.4-14.6-22-0.2-30.4l0.5-0.3l40.2-23.4l0.4-0.3C2279.5,640.7,2303,640.7,2317.5,649z"/>
</g>
<path class="st2" d="M2435,544.6c-1.5,0-2.9-0.3-4.2-1c-1.8-0.7-2.6-2.7-1.9-4.5c0.3-0.9,1-1.6,1.9-1.9c1.3-0.7,2.7-1.1,4.2-1
	c0.7,0,1.5,0.1,2.2,0.2l19.3-11.1l0.1-24.8l-19.9-11.5c-0.7,0.1-1.3,0.2-2,0.2c-1.5,0-2.9-0.3-4.2-1c-1.8-0.7-2.6-2.7-1.9-4.5
	c0.4-0.9,1-1.5,1.9-1.9c2.6-1.4,5.8-1.4,8.4,0c1,0.5,1.8,1.4,2.1,2.6c0.1,0.4,0.1,0.8,0,1.2l19.4,11.2c0.8,0.5,1.3,1.3,1.3,2.2
	l-0.1,27.8c0,0.9-0.5,1.8-1.3,2.2l-18.9,10.9c0.1,0.4,0.1,0.8,0,1.2c-0.3,1.1-1,2-2,2.5C2438,544.2,2436.5,544.6,2435,544.6z
	 M2434,540.4c0.3,0.1,0.6,0.2,1,0.2c0.3,0,0.6-0.1,0.9-0.2c-0.3-0.1-0.6-0.2-1-0.2C2434.6,540.2,2434.3,540.2,2434,540.4L2434,540.4
	z M2433.6,485c0.3,0.1,0.6,0.2,1,0.2c0.3,0,0.6,0,0.9-0.2c-0.3-0.1-0.6-0.2-1-0.2C2434.2,484.9,2433.9,484.9,2433.6,485L2433.6,485z
	"/>
<path class="st6" d="M2434.6,482.1c1.2,0,2.5,0.3,3.6,0.9c1.5,0.9,1.9,2.1,1.1,3.2l20.4,11.8c0.4,0.2,0.6,0.7,0.6,1.1l-0.1,27.8
	c0,0.5-0.2,0.9-0.6,1.1l-19.9,11.4c0.7,1,0.3,2.3-1.1,3.1c-2.2,1.1-4.9,1.1-7.1,0c-2-1.1-2-3,0-4.1c1.1-0.6,2.3-0.9,3.5-0.8
	c0.8,0,1.6,0.1,2.3,0.3l20.3-11.7l0.1-26.3l-21-12.1c-0.7,0.2-1.4,0.3-2.2,0.3c-1.2,0-2.5-0.3-3.6-0.9c-2-1.1-2-3,0-4.1
	C2432.1,482.4,2433.3,482.1,2434.6,482.1 M2434.5,486.5c0.6,0,1.2-0.1,1.8-0.4c0.6-0.2,0.9-0.8,0.7-1.4c-0.1-0.3-0.3-0.5-0.7-0.7
	c-1.1-0.6-2.4-0.6-3.5,0c-0.6,0.2-0.9,0.8-0.7,1.4c0.1,0.3,0.3,0.5,0.7,0.7C2433.3,486.3,2433.9,486.5,2434.5,486.5 M2434.9,541.8
	c0.6,0,1.2-0.1,1.8-0.4c0.6-0.2,0.9-0.8,0.7-1.4c-0.1-0.3-0.4-0.5-0.7-0.7c-1.1-0.6-2.4-0.6-3.5,0c-0.6,0.2-0.9,0.8-0.7,1.3
	c0.1,0.3,0.4,0.6,0.7,0.7C2433.7,541.7,2434.3,541.8,2434.9,541.8 M2434.5,479.6c-1.7,0-3.4,0.4-4.8,1.2c-1.6,0.8-2.7,2.5-2.7,4.3
	c0.1,1.8,1.1,3.5,2.8,4.3c1.5,0.8,3.1,1.2,4.8,1.2c0.6,0,1.2,0,1.8-0.1l18.8,10.9l-0.1,23.4l-18.2,10.5c-0.6-0.1-1.3-0.2-1.9-0.2
	c-1.7,0-3.3,0.4-4.8,1.2c-2.4,1.1-3.4,3.9-2.3,6.2c0.5,1,1.3,1.9,2.3,2.3c3,1.6,6.7,1.6,9.7,0c1.6-0.7,2.6-2.3,2.7-4l18.3-10.5
	c1.2-0.7,1.9-1.9,1.9-3.3l0.1-27.8c0-1.4-0.7-2.6-1.9-3.3l-18.6-10.8c0-0.3,0-0.5-0.1-0.8c-0.4-1.4-1.3-2.7-2.7-3.4
	c-1.5-0.8-3.2-1.2-4.9-1.2H2434.5z"/>
<polygon class="st2" points="2192.7,798 2196,796.1 2200.3,793.7 2215.4,793.7 2260.7,819.9 2260.8,828.7 2253.2,833 2238.1,833 
	2192.6,806.8 "/>
<g>
	<path class="st6" d="M2214.2,798.3c-4.3-2.2-9.3-2.2-13.6,0c-3.7,2.2-3.7,5.7,0,7.9c4.3,2.2,9.3,2.2,13.6,0
		C2218,804,2218,800.5,2214.2,798.3"/>
</g>
<g>
	<path class="st3" d="M2212.3,799.5c-3-1.5-6.6-1.5-9.6,0c-2.7,1.5-2.6,4,0,5.6c3,1.5,6.6,1.5,9.6,0
		C2214.9,803.5,2214.9,801,2212.3,799.5"/>
</g>
<g>
	<path class="st6" d="M2233.5,809.4c-4.3-2.2-9.3-2.2-13.6,0c-3.8,2.2-3.7,5.7,0,7.9c4.3,2.2,9.3,2.2,13.6,0
		C2237.2,815.1,2237.2,811.6,2233.5,809.4"/>
</g>
<g>
	<path class="st3" d="M2231.5,810.6c-3-1.5-6.6-1.5-9.6,0c-2.7,1.5-2.6,4,0,5.6c3,1.5,6.6,1.5,9.6,0
		C2234.1,814.6,2234.1,812.1,2231.5,810.6"/>
</g>
<g>
	<path class="st6" d="M2252.6,820.5c-4.3-2.2-9.3-2.2-13.6,0c-3.8,2.2-3.7,5.7,0,7.9c4.3,2.2,9.3,2.2,13.6,0
		C2256.4,826.2,2256.3,822.7,2252.6,820.5"/>
</g>
<g>
	<path class="st3" d="M2250.6,821.6c-3-1.5-6.6-1.5-9.6,0c-2.7,1.5-2.6,4,0,5.6c3,1.5,6.6,1.5,9.6,0
		C2253.2,825.7,2253.2,823.2,2250.6,821.6"/>
</g>
<g>
	<path class="st3" d="M2433.2,541.4c-0.6-0.2-0.9-0.8-0.7-1.3c0.1-0.3,0.4-0.6,0.7-0.7c1.1-0.6,2.4-0.6,3.5,0
		c0.6,0.2,0.9,0.8,0.7,1.4c-0.1,0.3-0.3,0.5-0.7,0.7C2435.6,541.9,2434.3,541.9,2433.2,541.4 M2438.5,538.3c-2.2-1.1-4.9-1.1-7.1,0
		c-2,1.1-2,3,0,4.1c2.2,1.1,4.9,1.1,7.1,0C2440.5,541.3,2440.4,539.4,2438.5,538.3"/>
</g>
<g>
	<path class="st3" d="M2432.8,486.1c-0.6-0.2-0.9-0.8-0.7-1.4c0.1-0.3,0.3-0.5,0.7-0.7c1.1-0.6,2.4-0.6,3.5,0
		c0.6,0.2,0.9,0.8,0.7,1.4c-0.1,0.3-0.3,0.5-0.7,0.7C2435.2,486.6,2433.9,486.6,2432.8,486.1 M2438.1,483c-2.2-1.2-4.9-1.2-7.1,0
		c-2,1.1-2,3,0,4.1c2.2,1.2,4.9,1.2,7.1,0C2440.1,486,2440.1,484.1,2438.1,483"/>
</g>
<g>
	<path class="st3" d="M2324.5,586.3l-11.2-6.4c-3.2-1.6-6.9-1.6-10,0c-2.7,1.6-2.7,4.2,0,5.8l11.2,6.4c3.2,1.6,6.9,1.6,10,0
		C2327.3,590.5,2327.2,587.9,2324.5,586.3"/>
</g>
<g>
	<path class="st3" d="M2337.5,578.8l-11.2-6.4c-3.2-1.6-6.9-1.6-10,0c-2.7,1.6-2.7,4.2,0,5.8l11.2,6.5c3.2,1.6,6.9,1.6,10,0
		C2340.2,583.1,2340.2,580.4,2337.5,578.8"/>
</g>
<g>
	<path class="st3" d="M2350.5,571.3l-11.2-6.5c-3.2-1.6-6.9-1.6-10,0c-2.7,1.6-2.7,4.2,0,5.8l11.2,6.4c3.2,1.6,6.9,1.6,10,0
		C2353.2,575.4,2353.2,572.8,2350.5,571.3"/>
</g>
<g>
	<path class="st3" d="M2363.4,563.8l-11.2-6.5c-3.2-1.6-6.9-1.6-10,0c-2.7,1.6-2.7,4.2,0,5.8l11.2,6.4c3.2,1.6,6.9,1.6,10,0
		C2366.1,568,2366.1,565.3,2363.4,563.8"/>
</g>
<g>
	<path class="st3" d="M2376.3,556.4l-11.2-6.5c-3.2-1.6-6.9-1.6-10,0c-2.7,1.6-2.7,4.2,0,5.8l11.2,6.4c3.2,1.6,6.9,1.6,10,0
		C2379,560.5,2379,557.9,2376.3,556.4"/>
</g>
<g>
	<path class="st3" d="M2389.2,548.8l-11.2-6.5c-3.2-1.6-6.9-1.6-10,0c-2.7,1.6-2.7,4.2,0,5.8l11.2,6.4c3.2,1.6,6.9,1.6,10,0
		C2392,553,2392,550.4,2389.2,548.8"/>
</g>
<g>
	<path class="st3" d="M2402.2,541.3L2391,535c-3.2-1.6-6.9-1.6-10,0c-2.7,1.6-2.7,4.2,0,5.8l11.2,6.4c3.2,1.6,6.9,1.6,10,0
		C2404.9,545.6,2404.9,542.9,2402.2,541.3"/>
</g>
<g>
	<path class="st3" d="M2199.3,586.3l11.2-6.4c3.2-1.6,6.9-1.6,10,0c2.7,1.6,2.7,4.2,0,5.8l-11.2,6.5c-3.2,1.6-6.9,1.6-10,0
		C2196.5,590.6,2196.5,587.9,2199.3,586.3"/>
</g>
<g>
	<path class="st3" d="M2186.3,578.8l11.2-6.4c3.2-1.6,6.9-1.6,10,0c2.7,1.6,2.7,4.2,0,5.8l-11.2,6.5c-3.2,1.6-6.9,1.6-10,0
		C2183.6,583.1,2183.6,580.4,2186.3,578.8"/>
</g>
<g>
	<path class="st3" d="M2173.3,571.3l11.2-6.5c3.2-1.6,6.9-1.6,10,0c2.7,1.6,2.7,4.2,0,5.8l-11.2,6.4c-3.2,1.6-6.9,1.6-10,0
		C2170.6,575.4,2170.6,572.8,2173.3,571.3"/>
</g>
<g>
	<path class="st3" d="M2160.4,563.8l11.2-6.5c3.2-1.6,6.9-1.6,10,0c2.7,1.6,2.7,4.2,0,5.8l-11.2,6.4c-3.2,1.6-6.9,1.6-10,0
		C2157.6,568,2157.7,565.4,2160.4,563.8"/>
</g>
<g>
	<path class="st3" d="M2147.5,556.4l11.2-6.5c3.2-1.6,6.9-1.6,10,0c2.7,1.6,2.7,4.2,0,5.8l-11.2,6.4c-3.2,1.6-6.9,1.6-10,0
		C2144.8,560.5,2144.8,557.9,2147.5,556.4"/>
</g>
<g>
	<path class="st3" d="M2134.6,548.8l11.2-6.4c3.1-1.6,6.9-1.6,10,0c2.8,1.6,2.7,4.2,0,5.8l-11.2,6.4c-3.2,1.6-6.9,1.6-10,0
		C2131.8,553,2131.8,550.4,2134.6,548.8"/>
</g>
<g>
	<path class="st3" d="M2121.6,541.3l11.2-6.4c3.2-1.6,6.9-1.6,10,0c2.8,1.6,2.7,4.2,0,5.8l-11.2,6.4c-3.2,1.6-6.9,1.6-10,0
		C2118.8,545.6,2118.8,542.9,2121.6,541.3"/>
</g>
<polygon class="st3" points="2375.2,494.2 2401.1,479.2 2394.6,475.5 2368.7,490.5 "/>
<polyline class="st3" points="2381.7,468 2355.7,483 2362.2,486.7 2388.1,471.8 "/>
<polygon class="st3" points="2148.7,494.3 2122.7,479.3 2129.2,475.6 2155.2,490.6 "/>
<polyline class="st3" points="2142.2,468.1 2168.1,483.1 2161.6,486.8 2135.7,471.8 "/>
<g>
	<path class="st3" d="M2142.9,481.7l-11.2-6.4c-3.2-1.6-6.9-1.6-10,0c-2.7,1.6-2.7,4.2,0,5.8l11.2,6.4c3.2,1.6,6.9,1.6,10,0
		C2145.7,485.9,2145.7,483.3,2142.9,481.7"/>
</g>
<g>
	<path class="st3" d="M2155.9,474.2l-11.2-6.4c-3.2-1.6-6.9-1.6-10,0c-2.7,1.6-2.7,4.2,0,5.8l11.2,6.4c3.2,1.6,6.9,1.6,10,0
		C2158.7,478.4,2158.6,475.8,2155.9,474.2"/>
</g>
<g>
	<path class="st3" d="M2381.1,481.7l11.2-6.5c3.2-1.6,6.9-1.6,10,0c2.7,1.6,2.7,4.2,0,5.8l-11.2,6.5c-3.2,1.6-6.9,1.6-10,0
		C2378.3,485.9,2378.3,483.3,2381.1,481.7"/>
</g>
<g>
	<path class="st3" d="M2368.1,474.2l11.2-6.5c3.2-1.6,6.9-1.6,10,0c2.7,1.6,2.7,4.2,0,5.8l-11.2,6.5c-3.2,1.6-6.9,1.6-10,0
		C2365.4,478.4,2365.4,475.8,2368.1,474.2"/>
</g>
<polygon class="st14" points="2145.2,436.2 2261.9,368.8 2378.7,436.2 2261.9,503.6 "/>
<polygon class="st9" points="2261.9,503.6 2378.7,436.2 2378.7,511.1 2261.9,578.5 "/>
<polygon class="st7" points="2145.2,436.2 2261.9,503.6 2261.9,578.5 2145.2,511.1 "/>
<linearGradient id="SVGID_8_" gradientUnits="userSpaceOnUse" x1="2276.1904" y1="554.6667" x2="2315.1233" y2="487.2532" gradientTransform="matrix(1 0 0 -1 0 1080)">
	<stop  offset="0" style="stop-color:#E6F7FF"/>
	<stop  offset="3.000000e-02" style="stop-color:#E1F2FA"/>
	<stop  offset="0.28" style="stop-color:#85909E"/>
	<stop  offset="0.66" style="stop-color:#85909E"/>
	<stop  offset="0.8" style="stop-color:#E6F7FF"/>
</linearGradient>
<path class="st17" d="M2284.4,520.6c13.2,7.7,13,22.5,13,22.5V573l13,7.5l12.9,7.5l-6.5,3.8l-25.9-15c0,0,0-15,0.1-30
	c0.1-15-13.1-22.4-13.1-22.4L2284.4,520.6z"/>
<linearGradient id="SVGID_9_" gradientUnits="userSpaceOnUse" x1="2289.1311" y1="562.2313" x2="2328.0457" y2="494.8273" gradientTransform="matrix(1 0 0 -1 0 1080)">
	<stop  offset="0" style="stop-color:#E6F7FF"/>
	<stop  offset="3.000000e-02" style="stop-color:#E1F2FA"/>
	<stop  offset="0.28" style="stop-color:#85909E"/>
	<stop  offset="0.66" style="stop-color:#85909E"/>
	<stop  offset="0.8" style="stop-color:#E6F7FF"/>
</linearGradient>
<path class="st18" d="M2297.4,513c13.2,7.7,13,22.5,13,22.5v29.9l13,7.5l12.9,7.5l-6.5,3.7l-26-15.1c0,0,0-15,0.1-30
	c0.1-15-13.1-22.4-13.1-22.4L2297.4,513z"/>
<linearGradient id="SVGID_10_" gradientUnits="userSpaceOnUse" x1="2302.1257" y1="569.718" x2="2341.0405" y2="502.3007" gradientTransform="matrix(1 0 0 -1 0 1080)">
	<stop  offset="0" style="stop-color:#E6F7FF"/>
	<stop  offset="3.000000e-02" style="stop-color:#E1F2FA"/>
	<stop  offset="0.28" style="stop-color:#85909E"/>
	<stop  offset="0.66" style="stop-color:#85909E"/>
	<stop  offset="0.8" style="stop-color:#E6F7FF"/>
</linearGradient>
<path class="st19" d="M2310.4,505.5c13.2,7.7,13,22.5,13,22.5V558l13,7.5l12.9,7.5l-6.5,3.8l-25.9-15c0,0,0-15,0.1-30
	c0.1-15-13.1-22.4-13.1-22.4L2310.4,505.5z"/>
<linearGradient id="SVGID_11_" gradientUnits="userSpaceOnUse" x1="2315.0461" y1="577.2128" x2="2353.9946" y2="509.7719" gradientTransform="matrix(1 0 0 -1 0 1080)">
	<stop  offset="0" style="stop-color:#E6F7FF"/>
	<stop  offset="3.000000e-02" style="stop-color:#E1F2FA"/>
	<stop  offset="0.28" style="stop-color:#85909E"/>
	<stop  offset="0.66" style="stop-color:#85909E"/>
	<stop  offset="0.8" style="stop-color:#E6F7FF"/>
</linearGradient>
<path class="st20" d="M2323.3,498c13.2,7.7,13,22.5,13,22.5v29.9l13,7.5l12.9,7.5l-6.5,3.8l-26-15c0,0,0-15,0.1-30
	c0.1-15-13.1-22.4-13.1-22.4L2323.3,498z"/>
<linearGradient id="SVGID_12_" gradientUnits="userSpaceOnUse" x1="2328.041" y1="584.7083" x2="2366.9697" y2="517.2795" gradientTransform="matrix(1 0 0 -1 0 1080)">
	<stop  offset="0" style="stop-color:#E6F7FF"/>
	<stop  offset="3.000000e-02" style="stop-color:#E1F2FA"/>
	<stop  offset="0.28" style="stop-color:#85909E"/>
	<stop  offset="0.66" style="stop-color:#85909E"/>
	<stop  offset="0.8" style="stop-color:#E6F7FF"/>
</linearGradient>
<path class="st21" d="M2336.3,490.6c13.2,7.7,13,22.5,13,22.5V543l13,7.5l13,7.5l-6.5,3.7l-25.9-15c0,0,0-15,0.1-30
	c0.1-15-13.1-22.4-13.1-22.4L2336.3,490.6z"/>
<linearGradient id="SVGID_13_" gradientUnits="userSpaceOnUse" x1="2341.0146" y1="592.1902" x2="2379.9292" y2="524.7729" gradientTransform="matrix(1 0 0 -1 0 1080)">
	<stop  offset="0" style="stop-color:#E6F7FF"/>
	<stop  offset="3.000000e-02" style="stop-color:#E1F2FA"/>
	<stop  offset="0.28" style="stop-color:#85909E"/>
	<stop  offset="0.66" style="stop-color:#85909E"/>
	<stop  offset="0.8" style="stop-color:#E6F7FF"/>
</linearGradient>
<path class="st22" d="M2349.2,483.1c13.2,7.7,13,22.5,13,22.5v29.9l13,7.5l12.9,7.5l-6.5,3.8l-25.9-15c0,0,0-15,0.1-30
	c0.1-15-13.1-22.4-13.1-22.4L2349.2,483.1z"/>
<linearGradient id="SVGID_14_" gradientUnits="userSpaceOnUse" x1="2353.9722" y1="599.6697" x2="2392.9019" y2="532.262" gradientTransform="matrix(1 0 0 -1 0 1080)">
	<stop  offset="0" style="stop-color:#E6F7FF"/>
	<stop  offset="3.000000e-02" style="stop-color:#E1F2FA"/>
	<stop  offset="0.28" style="stop-color:#85909E"/>
	<stop  offset="0.66" style="stop-color:#85909E"/>
	<stop  offset="0.8" style="stop-color:#E6F7FF"/>
</linearGradient>
<path class="st23" d="M2362.2,475.6c13.2,7.7,13,22.5,13,22.5V528l13,7.5l12.9,7.5l-6.5,3.8l-25.9-15c0,0,0-15,0.1-30
	c0.1-15-13.1-22.4-13.1-22.4L2362.2,475.6z"/>
<linearGradient id="SVGID_15_" gradientUnits="userSpaceOnUse" x1="5249.0791" y1="554.7444" x2="5287.999" y2="487.3308" gradientTransform="matrix(-1 0 0 -1 7496.8501 1080)">
	<stop  offset="0" style="stop-color:#E6F7FF"/>
	<stop  offset="3.000000e-02" style="stop-color:#E6F7FF"/>
	<stop  offset="0.28" style="stop-color:#DFE4EA"/>
	<stop  offset="0.66" style="stop-color:#DFE4EA"/>
	<stop  offset="0.76" style="stop-color:#E6F7FF"/>
</linearGradient>
<path class="st24" d="M2239.5,520.6c-13.2,7.7-13,22.5-13,22.5V573l-12.9,7.4l-13,7.5l6.5,3.8l25.9-15c0,0,0-15-0.1-30
	c-0.1-15,13.1-22.4,13.1-22.4L2239.5,520.6z"/>
<linearGradient id="SVGID_16_" gradientUnits="userSpaceOnUse" x1="5262.0869" y1="562.2321" x2="5301.0337" y2="494.7721" gradientTransform="matrix(-1 0 0 -1 7496.8501 1080)">
	<stop  offset="0" style="stop-color:#E6F7FF"/>
	<stop  offset="3.000000e-02" style="stop-color:#E6F7FF"/>
	<stop  offset="0.28" style="stop-color:#DFE4EA"/>
	<stop  offset="0.66" style="stop-color:#DFE4EA"/>
	<stop  offset="0.76" style="stop-color:#E6F7FF"/>
</linearGradient>
<path class="st25" d="M2226.5,513c-13.2,7.7-13,22.5-13,22.5v29.9l-12.9,7.5l-12.9,7.5l6.5,3.7l25.9-15.1c0,0,0-15-0.1-30
	c-0.1-15,13.1-22.4,13.1-22.4L2226.5,513z"/>
<linearGradient id="SVGID_17_" gradientUnits="userSpaceOnUse" x1="5275.0444" y1="569.6959" x2="5313.981" y2="502.2633" gradientTransform="matrix(-1 0 0 -1 7496.8501 1080)">
	<stop  offset="0" style="stop-color:#E6F7FF"/>
	<stop  offset="3.000000e-02" style="stop-color:#E6F7FF"/>
	<stop  offset="0.28" style="stop-color:#DFE4EA"/>
	<stop  offset="0.66" style="stop-color:#DFE4EA"/>
	<stop  offset="0.76" style="stop-color:#E6F7FF"/>
</linearGradient>
<path class="st26" d="M2213.5,505.5c-13.2,7.7-13,22.5-13,22.5V558l-13,7.5l-12.9,7.6l6.5,3.8l25.9-15c0,0,0-15-0.1-30
	s13.1-22.4,13.1-22.4L2213.5,505.5z"/>
<linearGradient id="SVGID_18_" gradientUnits="userSpaceOnUse" x1="5287.9756" y1="577.2431" x2="5326.9141" y2="509.7978" gradientTransform="matrix(-1 0 0 -1 7496.8501 1080)">
	<stop  offset="0" style="stop-color:#E6F7FF"/>
	<stop  offset="3.000000e-02" style="stop-color:#E6F7FF"/>
	<stop  offset="0.28" style="stop-color:#DFE4EA"/>
	<stop  offset="0.66" style="stop-color:#DFE4EA"/>
	<stop  offset="0.76" style="stop-color:#E6F7FF"/>
</linearGradient>
<path class="st27" d="M2200.6,498c-13.2,7.7-13,22.5-13,22.5v29.9l-13,7.5l-12.9,7.5l6.5,3.7l25.9-15c0,0,0-15-0.1-30
	c-0.1-15,13.2-22.4,13.2-22.4L2200.6,498z"/>
<linearGradient id="SVGID_19_" gradientUnits="userSpaceOnUse" x1="5301.0254" y1="584.6755" x2="5339.9517" y2="517.2735" gradientTransform="matrix(-1 0 0 -1 7496.8501 1080)">
	<stop  offset="0" style="stop-color:#E6F7FF"/>
	<stop  offset="3.000000e-02" style="stop-color:#E6F7FF"/>
	<stop  offset="0.28" style="stop-color:#DFE4EA"/>
	<stop  offset="0.66" style="stop-color:#DFE4EA"/>
	<stop  offset="0.76" style="stop-color:#E6F7FF"/>
</linearGradient>
<path class="st28" d="M2187.6,490.6c-13.2,7.7-13,22.5-13,22.5V543l-13,7.5l-12.9,7.5l6.5,3.7l25.9-15c0,0,0-15-0.1-30
	c-0.1-15,13.1-22.4,13.1-22.4L2187.6,490.6z"/>
<linearGradient id="SVGID_20_" gradientUnits="userSpaceOnUse" x1="5313.9946" y1="592.1904" x2="5352.9097" y2="524.7728" gradientTransform="matrix(-1 0 0 -1 7496.8501 1080)">
	<stop  offset="0" style="stop-color:#E6F7FF"/>
	<stop  offset="3.000000e-02" style="stop-color:#E6F7FF"/>
	<stop  offset="0.28" style="stop-color:#DFE4EA"/>
	<stop  offset="0.66" style="stop-color:#DFE4EA"/>
	<stop  offset="0.76" style="stop-color:#E6F7FF"/>
</linearGradient>
<path class="st29" d="M2174.6,483.1c-13.2,7.7-13,22.5-13,22.5v29.9l-13,7.5l-12.9,7.5l6.5,3.8l25.9-15c0,0,0-15-0.1-30
	c-0.1-15,13.1-22.4,13.1-22.4L2174.6,483.1z"/>
<linearGradient id="SVGID_21_" gradientUnits="userSpaceOnUse" x1="5326.96" y1="599.662" x2="5365.8818" y2="532.2455" gradientTransform="matrix(-1 0 0 -1 7496.8501 1080)">
	<stop  offset="0" style="stop-color:#E6F7FF"/>
	<stop  offset="3.000000e-02" style="stop-color:#E6F7FF"/>
	<stop  offset="0.28" style="stop-color:#DFE4EA"/>
	<stop  offset="0.66" style="stop-color:#DFE4EA"/>
	<stop  offset="0.76" style="stop-color:#E6F7FF"/>
</linearGradient>
<path class="st30" d="M2161.7,475.6c-13.2,7.7-13,22.5-13,22.5V528l-13,7.5l-12.9,7.5l6.5,3.7l25.9-15c0,0,0-15-0.1-30
	c-0.1-15,13.1-22.4,13.1-22.4L2161.7,475.6z"/>
<g>
	<path class="st3" d="M2135.5,763.3c-0.6-0.2-0.9-0.8-0.7-1.4c0.1-0.3,0.3-0.5,0.7-0.7c1.1-0.6,2.4-0.6,3.5,0
		c0.6,0.2,0.9,0.8,0.7,1.4c-0.1,0.3-0.3,0.5-0.7,0.7C2137.9,763.9,2136.6,763.9,2135.5,763.3 M2140.8,760.2c-2.2-1.2-4.9-1.2-7.1,0
		c-2,1.1-2,3,0,4.1c2.2,1.2,4.9,1.2,7.1,0C2142.8,763.2,2142.7,761.4,2140.8,760.2"/>
</g>
<g>
	<path class="st3" d="M2106.8,698.9c-5.5-3.2-14.5-3.2-20,0s-5.5,8.4,0,11.6c5.5,3.2,14.5,3.2,20,0
		C2112.3,707.3,2112.3,702.1,2106.8,698.9"/>
</g>
<g>
	<path class="st2" d="M2300.3,794.1c-1.5,0-2.9-0.3-4.2-1c-1.8-0.7-2.6-2.7-1.9-4.5c0.3-0.9,1-1.6,1.9-1.9c1.3-0.7,2.7-1.1,4.2-1
		c1.5,0,2.9,0.3,4.2,1c1.8,0.7,2.6,2.7,1.9,4.5c-0.3,0.9-1,1.6-1.9,1.9C2303.3,793.8,2301.8,794.1,2300.3,794.1z"/>
	<path class="st6" d="M2300.3,787c1.2,0,2.5,0.3,3.6,0.9c2,1.1,2,3,0,4.1c-1.1,0.6-2.3,0.9-3.6,0.9c-1.2,0-2.5-0.3-3.6-0.9
		c-2-1.1-2-3,0-4.1C2297.8,787.2,2299.1,787,2300.3,787 M2300.3,784.4c-1.7,0-3.4,0.4-4.9,1.2c-2.4,1.1-3.4,3.9-2.3,6.2
		c0.5,1,1.3,1.9,2.3,2.3c3,1.6,6.7,1.6,9.7,0c2.4-1.1,3.4-3.9,2.3-6.2c-0.5-1-1.3-1.9-2.3-2.3C2303.7,784.8,2302,784.4,2300.3,784.4
		L2300.3,784.4z"/>
</g>
<g>
	<path class="st3" d="M2298.6,790.9c-0.6-0.2-0.9-0.8-0.7-1.4c0.1-0.3,0.3-0.5,0.7-0.7c1.1-0.6,2.4-0.6,3.5,0
		c0.6,0.2,0.9,0.8,0.7,1.3c-0.1,0.3-0.4,0.6-0.7,0.7C2301,791.5,2299.7,791.5,2298.6,790.9 M2303.9,787.8c-2.2-1.2-4.9-1.2-7.1,0
		c-2,1.1-2,3,0,4.1c2.2,1.1,4.9,1.1,7.1,0C2305.9,790.8,2305.9,789,2303.9,787.8"/>
</g>
<g>
	<path class="st2" d="M2108.4,661.1c-1.5,0-2.9-0.3-4.2-1c-1.8-0.7-2.6-2.7-2-4.4c0.3-0.9,1.1-1.6,2-2c2.6-1.4,5.8-1.4,8.4,0
		c1.8,0.7,2.6,2.7,2,4.4c-0.3,0.9-1.1,1.6-2,2C2111.3,660.8,2109.9,661.1,2108.4,661.1z"/>
	<path class="st6" d="M2108.4,654c1.2,0,2.5,0.3,3.6,0.9c2,1.1,2,3,0,4.1c-2.2,1.1-4.9,1.1-7.1,0c-2-1.1-2-3,0-4.1
		C2105.9,654.3,2107.1,654,2108.4,654 M2108.4,651.5c-1.7,0-3.4,0.4-4.8,1.2c-2.4,1.1-3.4,3.9-2.3,6.2c0.5,1,1.3,1.9,2.3,2.3
		c3,1.6,6.7,1.6,9.7,0c1.6-0.8,2.7-2.5,2.7-4.3c-0.1-1.8-1.1-3.5-2.8-4.3C2111.7,651.8,2110.1,651.4,2108.4,651.5L2108.4,651.5z"/>
</g>
<g>
	<path class="st3" d="M2106.6,658c-0.6-0.2-0.9-0.8-0.7-1.3c0.1-0.3,0.4-0.6,0.7-0.7c1.1-0.6,2.4-0.6,3.5,0c0.6,0.2,0.9,0.8,0.7,1.4
		c-0.1,0.3-0.3,0.5-0.7,0.7C2109.1,658.5,2107.8,658.5,2106.6,658 M2112,654.9c-2.2-1.1-4.9-1.1-7.1,0c-2,1.1-2,3,0,4.1
		c2.2,1.1,4.9,1.1,7.1,0C2113.9,657.9,2113.9,656,2112,654.9"/>
</g>
<path class="st2" d="M2108.4,525.2h-38.3c-0.2,0-0.4-0.1-0.6-0.2l-39.1-22.6l2.6-1.5l37.5,21.7h37.7l10.8-6.2l1.3,2.2l-11.1,6.4
	C2108.9,525.2,2108.7,525.2,2108.4,525.2z"/>
<g>
	<path class="st3" d="M2120.3,517.2c-0.6-0.2-0.9-0.8-0.7-1.3c0.1-0.3,0.4-0.6,0.7-0.7c1.1-0.6,2.4-0.6,3.5,0
		c0.6,0.2,0.9,0.8,0.7,1.4c-0.1,0.3-0.3,0.5-0.7,0.7C2122.7,517.7,2121.4,517.7,2120.3,517.2 M2125.6,514.1c-2.2-1.1-4.9-1.1-7.1,0
		c-2,1.1-2,3,0,4.1c2.2,1.1,4.9,1.1,7.1,0C2127.6,517.1,2127.5,515.2,2125.6,514.1"/>
</g>
<g>
	<path class="st3" d="M2056.6,498.3c-0.6-0.2-0.9-0.8-0.7-1.4c0.1-0.3,0.3-0.5,0.7-0.7c1.1-0.6,2.4-0.6,3.5,0
		c0.6,0.2,0.9,0.8,0.7,1.4c-0.1,0.3-0.3,0.5-0.7,0.7C2059.1,498.8,2057.8,498.8,2056.6,498.3 M2062,495.2c-2.2-1.2-4.9-1.2-7.1,0
		c-2,1.1-2,3,0,4.1c2.2,1.2,4.9,1.2,7.1,0C2063.9,498.2,2063.9,496.3,2062,495.2"/>
</g>
<polygon class="st6" points="2342.2,773.8 2335.2,761.7 2375.2,738.6 2464.2,739.3 2440,753.3 2379,752.6 "/>
<g>
	<path class="st31" d="M2343.1,765.3c-2.7-1.4-5.9-1.4-8.6,0c-2.4,1.4-2.4,3.6,0,5c2.7,1.4,5.9,1.4,8.6,0
		C2345.5,768.8,2345.5,766.6,2343.1,765.3"/>
</g>
<path class="st2" d="M2340.3,770.5l-3.2-5.5l38.4-22.1c0.5-0.3,1-0.4,1.6-0.4h82l-11.2,6.4h-70L2340.3,770.5z"/>
<g>
	<path class="st3" d="M2343.1,765.3c-2.7-1.4-5.9-1.4-8.6,0c-2.4,1.4-2.4,3.6,0,5c2.7,1.4,5.9,1.4,8.6,0
		C2345.5,768.8,2345.5,766.6,2343.1,765.3"/>
</g>
<g>
	<path class="st2" d="M2287.4,794.1c-1.5,0-2.9-0.3-4.2-1c-1.8-0.7-2.6-2.7-2-4.4c0.3-0.9,1.1-1.6,2-2c1.3-0.7,2.7-1.1,4.2-1
		c1.5,0,2.9,0.3,4.2,1c1.8,0.7,2.6,2.7,1.9,4.5c-0.3,0.9-1,1.6-1.9,1.9C2290.3,793.8,2288.9,794.1,2287.4,794.1z"/>
	<path class="st6" d="M2287.4,787c1.2,0,2.5,0.3,3.6,0.9c2,1.1,2,3,0,4.1c-2.2,1.1-4.9,1.1-7.1,0c-2-1.1-2-3,0-4.1
		C2284.9,787.2,2286.1,787,2287.4,787 M2287.4,784.4c-1.7,0-3.4,0.4-4.9,1.2c-2.4,1.1-3.4,3.9-2.3,6.2c0.5,1,1.3,1.9,2.3,2.3
		c3,1.6,6.7,1.6,9.7,0c2.4-1.1,3.4-3.9,2.3-6.2c-0.5-1-1.3-1.9-2.3-2.3C2290.7,784.8,2289.1,784.4,2287.4,784.4z"/>
</g>
<g>
	<path class="st3" d="M2285.6,790.9c-0.6-0.2-0.9-0.8-0.7-1.4c0.1-0.3,0.4-0.5,0.7-0.7c1.1-0.6,2.4-0.6,3.5,0
		c0.6,0.2,0.9,0.8,0.7,1.4c-0.1,0.3-0.3,0.5-0.7,0.7C2288,791.5,2286.7,791.5,2285.6,790.9 M2290.9,787.8c-2.2-1.2-4.9-1.2-7.1,0
		c-2,1.1-2,3,0,4.1c2.2,1.1,4.9,1.1,7.1,0C2292.9,790.8,2292.9,789,2290.9,787.8"/>
</g>
<polygon class="st2" points="2002,697.2 1847.6,608 1850.2,606.5 2003.3,695 "/>
<g>
	<path class="st3" d="M2003.5,698.6c-0.6-0.2-0.9-0.8-0.7-1.4c0.1-0.3,0.3-0.5,0.7-0.7c1.1-0.6,2.4-0.6,3.5,0
		c0.6,0.2,0.9,0.8,0.7,1.4c-0.1,0.3-0.3,0.5-0.7,0.7C2005.9,699.1,2004.6,699.1,2003.5,698.6 M2008.8,695.5c-2.2-1.2-4.9-1.2-7.1,0
		c-2,1.1-2,3,0,4.1c2.2,1.1,4.9,1.1,7.1,0C2010.8,698.5,2010.8,696.6,2008.8,695.5"/>
</g>
<polygon class="st2" points="2110.3,563.8 2017.3,510.1 2019.8,508.6 2111.5,561.6 "/>
<g>
	<path class="st3" d="M2111.7,565.2c-0.6-0.2-0.9-0.8-0.7-1.4c0.1-0.3,0.3-0.5,0.7-0.7c1.1-0.6,2.4-0.6,3.5,0
		c0.6,0.2,0.9,0.8,0.7,1.4c-0.1,0.3-0.3,0.5-0.7,0.7C2114.1,565.7,2112.8,565.7,2111.7,565.2 M2117,562.1c-2.2-1.2-4.9-1.2-7.1,0
		c-2,1.1-2,3,0,4.1c2.2,1.1,4.9,1.1,7.1,0C2119,565.1,2119,563.2,2117,562.1"/>
</g>
<polygon class="st14" points="2261.8,865.7 2261.8,856.3 2684,612.5 2684.1,622 "/>
<polygon class="st32" points="1839.7,612.6 2261.8,856.3 2261.8,865.7 1839.7,622 "/>
<polygon class="st4" points="2405.4,783.8 2405.4,739.4 2454,767.6 2473.3,823 "/>
<polygon class="st33" points="2454,767.6 2569.2,701.2 2587.9,756.9 2473.3,823 "/>
<polygon class="st2" points="2484.1,816.8 2469.7,775 2557.5,724.4 2571.6,766.3 2569.3,767.6 2556.1,728.1 2472.8,776.2 
	2486.6,815.3 "/>
<polygon class="st3" points="2405.4,739.4 2520.5,673 2569.2,701.2 2454,767.6 "/>
<polygon class="st2" points="2012.4,512.9 2012.4,490.7 2127.6,424.2 2127.5,446.4 "/>
<polygon class="st3" points="1974.1,468.6 2012.4,490.7 2127.6,424.2 2089.2,402.1 "/>
<polygon class="st4" points="1935.6,468.5 1974.1,468.6 2012.4,490.7 2012.4,512.9 "/>
<polygon class="st34" points="2089.2,402.1 2050.8,402.1 1935.6,468.5 1974.1,468.6 "/>
<polygon class="st2" points="2683.8,599.8 2722.2,577.6 2741.4,588.5 2683.8,621.9 "/>
<polygon class="st4" points="1685.8,413.2 2261.6,745.6 2261.6,789.9 2242.4,778.8 2223.2,745.6 1724.2,457.5 1705,468.6 
	1685.8,457.5 "/>
<polygon class="st2" points="2261.6,745.6 2837.4,413.2 2837.4,457.5 2818.2,468.6 2799,457.5 2300,745.6 2280.8,778.8 
	2261.6,789.9 "/>
<path class="st3" d="M2261.6,80.8l575.8,332.4l-575.8,332.4l-575.8-332.4L2261.6,80.8z M2261.6,723.4L2799,413.1l-537.4-310.2
	l-537.4,310.3L2261.6,723.4z"/>
<polygon class="st2" points="1743.4,424.3 2223.2,147.3 2242.4,158.3 2261.6,147.3 2261.6,102.9 1724.2,413.2 "/>
<polygon class="st4" points="2799,413.2 2261.6,102.9 2261.6,147.3 2280.8,158.3 2300,147.3 2779.8,424.3 "/>
<polygon class="st35" points="1733.8,418.7 2261.6,114 2789.4,418.7 2261.6,723.4 "/>
<polygon class="st36" points="2050.7,490.4 1858.5,379.9 1781.7,424.2 1973.8,535.1 "/>
<polygon class="st36" points="2377.2,213.7 2261.7,147.2 2050.9,269.1 2165.8,335.5 "/>
<polygon class="st36" points="2741.5,424.3 2626.3,357.8 2549.5,402.1 2664.8,468.6 "/>
<polygon class="st36" points="2741.5,424.3 2684,391 2645.6,413.2 2703.2,446.4 "/>
<polygon class="st36" points="2338.8,191.6 2262,235.9 2184.9,191.6 2261.7,147.2 "/>
<polygon class="st36" points="2300.2,258 2262,235.9 2338.8,191.6 2377.2,213.7 "/>
<polygon class="st36" points="1935.7,424.3 1858.5,468.5 1781.7,424.2 1858.5,379.9 "/>
<path class="st36" d="M2185.2,213.7c-1.8,0.5-96,55.4-96,55.4"/>
<line class="st36" x1="2204.5" y1="224.8" x2="2108.5" y2="280.2"/>
<line class="st36" x1="2223.6" y1="235.9" x2="2146.9" y2="280.2"/>
<line class="st36" x1="2242.8" y1="247" x2="2146.8" y2="302.3"/>
<line class="st36" x1="2262" y1="258" x2="2184.9" y2="302.2"/>
<polygon class="st37" points="1897,424.3 1858.7,402.1 1820.2,424.2 1858.7,446.4 "/>
<polygon class="st37" points="2722.3,413.2 2683.9,391 2645.4,413.1 2684,435.3 "/>
<polygon class="st37" points="2300.1,169.4 2261.7,147.3 2223.2,169.4 2261.7,191.5 "/>
<polygon class="st37" points="1974.2,446.4 1896.6,490.6 1954.7,524.1 2031,479.1 "/>
<polygon class="st38" points="1685.8,634.9 2261.6,967.2 2261.6,989.4 1685.8,657 "/>
<polygon class="st39" points="2837.4,634.8 2837.4,656.9 2261.6,989.4 2261.6,967.2 "/>
<polygon class="st3" points="2012.1,778.7 1992.8,789.8 1935.3,756.5 1954.6,745.4 "/>
<polygon class="st2" points="2012.1,778.7 1992.8,789.8 1992.9,856.2 2012.1,845.2 "/>
<polygon class="st4" points="1935.3,756.5 1935.4,823 1992.9,856.2 1992.9,789.8 "/>
<polygon class="st2" points="2012.1,778.7 2088.9,734.5 2088.9,765.9 2080.9,761.3 2012,801.1 "/>
<polygon class="st3" points="1935.3,756.5 2031.3,701.3 2088.9,734.5 1993,789.9 "/>
<polyline class="st3" points="150.3,623.7 766.1,269.7 1378.8,623.5 764.6,978.3 150.3,623.7 "/>
<polygon class="st40" points="189,612.6 764.8,280.2 1340.6,612.6 764.8,944.9 "/>
<line class="st41" x1="726.4" y1="324.5" x2="726.4" y2="301.9"/>
<circle class="st4" cx="726.4" cy="293.6" r="18"/>
<line class="st41" x1="534.5" y1="479.6" x2="534.5" y2="457"/>
<circle class="st4" cx="534.5" cy="448.7" r="18"/>
<line class="st41" x1="438.6" y1="491.2" x2="438.6" y2="468.6"/>
<circle class="st4" cx="438.6" cy="460.3" r="18"/>
<line class="st41" x1="668.8" y1="367.7" x2="668.8" y2="345.1"/>
<path class="st4" d="M667.7,308.3l-11.9,35.2c-2.4,7.1,1.4,14.8,8.5,17.2c1.4,0.5,2.8,0.7,4.2,0.7l0,0c7.5,0,13.6-6.1,13.6-13.6
	c0-1.5-0.2-2.9-0.7-4.3l-11.9-35.2c-0.2-0.5-0.8-0.7-1.3-0.5C668,307.9,667.8,308.1,667.7,308.3z"/>
<line class="st41" x1="899.2" y1="416.6" x2="899.2" y2="394"/>
<path class="st4" d="M898.2,357.1l-11.9,35.2c-2.4,7.1,1.4,14.8,8.5,17.2c1.4,0.5,2.8,0.7,4.3,0.7l0,0c7.5,0,13.6-6.1,13.5-13.6
	c0-1.5-0.2-2.9-0.7-4.3l-11.9-35.2c-0.2-0.5-0.8-0.8-1.3-0.6C898.5,356.6,898.3,356.8,898.2,357.1z"/>
<line class="st41" x1="956.7" y1="457" x2="956.7" y2="434.4"/>
<circle class="st4" cx="956.7" cy="426.1" r="18"/>
<line class="st41" x1="1071.7" y1="478.7" x2="1071.7" y2="456.1"/>
<circle class="st4" cx="1071.7" cy="447.7" r="18"/>
<polygon class="st3" points="342.9,612.6 765.1,856.4 1187,612.7 764.7,368.8 "/>
<polygon class="st2" points="1052.8,778.9 822.3,645.8 937.4,579.3 918.3,568.3 783.8,645.9 1033.5,789.9 "/>
<linearGradient id="SVGID_22_" gradientUnits="userSpaceOnUse" x1="602.7136" y1="622.7941" x2="926.8493" y2="622.7941" gradientTransform="matrix(1 0 0 -1 0 1080)">
	<stop  offset="0" style="stop-color:#FFFFFF"/>
	<stop  offset="0.1" style="stop-color:#DFE4EA"/>
	<stop  offset="0.4" style="stop-color:#DFE4EA"/>
	<stop  offset="0.6" style="stop-color:#85909E"/>
	<stop  offset="0.9" style="stop-color:#85909E"/>
	<stop  offset="1" style="stop-color:#616E7C"/>
</linearGradient>
<path class="st42" d="M926.8,401.8L926.8,401.8c-0.5-6.3-8.5-10.9-8.5-10.9s-114.2-66-134.4-77.6c-11.8-6.9-26.5-6.9-38.3,0
	l-134.4,77.5c-6.6,3.8-8.7,7.7-8.5,11v110.9c0.3,6.4,8.5,11.2,8.5,11.2l19.2,11.1l115.2,66.4c19.2,11.1,38.3,0,38.3,0l134.3-77.6
	c6.8-3.9,8.8-7.8,8.5-11.2l0,0L926.8,401.8z"/>
<path class="st3" d="M630.4,423.9l-19.2-11.1c0,0-19.2-11.1,0-22.2l134.4-77.5c11.8-6.9,26.5-6.9,38.3,0
	c20.2,11.6,134.4,77.5,134.4,77.5s19.2,11.1,0,22.2L784,490.4c0,0-19.2,11.1-38.3,0L630.4,423.9z"/>
<linearGradient id="SVGID_23_" gradientUnits="userSpaceOnUse" x1="838.8931" y1="576.6312" x2="877.2465" y2="510.1894" gradientTransform="matrix(1 0 0 -1 0 1080)">
	<stop  offset="0" style="stop-color:#9DDBFD"/>
	<stop  offset="0.54" style="stop-color:#236995"/>
	<stop  offset="1" style="stop-color:#236995"/>
</linearGradient>
<path class="st43" d="M918.3,457.5L784,535.1v66.4l19.2,11.1l134.3-77.5l0.1-44.3C937.6,490.8,937.6,468.7,918.3,457.5z"/>
<path class="st44" d="M784,601.5l19.2,11l0.1-44.3c0,0,0-22.1-19.3-33.2v22.3L784,601.5z"/>
<linearGradient id="SVGID_24_" gradientUnits="userSpaceOnUse" x1="3211.6758" y1="576.6599" x2="3250.0691" y2="510.1713" gradientTransform="matrix(-1 0 0 -1 3902.25 1080)">
	<stop  offset="0" style="stop-color:#9DDBFD"/>
	<stop  offset="0.54" style="stop-color:#46A5DE"/>
	<stop  offset="1" style="stop-color:#46A5DE"/>
</linearGradient>
<path class="st45" d="M611.2,457.5l134.3,77.5v66.4l-19.2,11.1L592,535.1l-0.1-44.3C591.8,490.8,591.9,468.7,611.2,457.5z"/>
<path class="st34" d="M707.1,357.8l19.3-11.2c0,0,34.5-24.3,76.7,0.1l19.1,11.1v14.1h-115L707.1,357.8z"/>
<path class="st46" d="M745.5,601.5l-19.2,11.1l-0.1-44.3c0,0,0-22.1,19.3-33.2v22.3L745.5,601.5z"/>
<linearGradient id="SVGID_25_" gradientUnits="userSpaceOnUse" x1="610.6653" y1="678.3679" x2="918.9995" y2="678.3679" gradientTransform="matrix(1 0 0 -1 0 1080)">
	<stop  offset="0" style="stop-color:#616E7C"/>
	<stop  offset="0.1" style="stop-color:#85909E"/>
	<stop  offset="0.4" style="stop-color:#85909E"/>
	<stop  offset="0.6" style="stop-color:#DFE4EA"/>
	<stop  offset="0.9" style="stop-color:#DFE4EA"/>
	<stop  offset="1" style="stop-color:#FFFFFF"/>
</linearGradient>
<path class="st47" d="M637,422.8l-18.3-10.5c0,0-18.3-10.6,0-21.1l127.8-73.7c11.3-6.6,25.2-6.6,36.5,0
	c19.2,11,127.8,73.8,127.8,73.8s18.3,10.5,0,21.1L783,486.1c0,0-18.3,10.5-36.5,0L637,422.8z"/>
<linearGradient id="SVGID_26_" gradientUnits="userSpaceOnUse" x1="638.4055" y1="670.3324" x2="891.1672" y2="670.3324" gradientTransform="matrix(1 0 0 -1 0 1080)">
	<stop  offset="0" style="stop-color:#FFFFFF"/>
	<stop  offset="0.1" style="stop-color:#DFE4EA"/>
	<stop  offset="0.4" style="stop-color:#DFE4EA"/>
	<stop  offset="0.6" style="stop-color:#85909E"/>
	<stop  offset="0.9" style="stop-color:#85909E"/>
	<stop  offset="1" style="stop-color:#616E7C"/>
</linearGradient>
<path class="st48" d="M884.5,393.1c0,0-89-51.4-104.8-60.5c-9.2-5.4-20.7-5.4-29.9,0l-104.8,60.4c-5.7,3.3-7,6.6-6.6,9.4v21.3
	l108,62.4c18.3,10.5,36.5,0,36.5,0l108.1-62.4v-22l0,0C890.8,396.7,884.5,393.1,884.5,393.1z"/>
<path class="st3" d="M660,419l-15-8.6c0,0-15-8.7,0-17.3l104.8-60.4c9.2-5.4,20.7-5.4,29.9,0c15.7,9,104.8,60.5,104.8,60.5
	s15,8.6,0,17.3l-104.8,60.5c0,0-15,8.6-29.9,0L660,419z"/>
<linearGradient id="SVGID_27_" gradientUnits="userSpaceOnUse" x1="602.7331" y1="665.1936" x2="602.7458" y2="665.1936" gradientTransform="matrix(1 0 0 -1 0 1080)">
	<stop  offset="0" style="stop-color:#9DDBFD"/>
	<stop  offset="0.1" style="stop-color:#46A5DE"/>
	<stop  offset="0.4" style="stop-color:#46A5DE"/>
	<stop  offset="0.6" style="stop-color:#236995"/>
	<stop  offset="0.9" style="stop-color:#236995"/>
	<stop  offset="1" style="stop-color:#15506D"/>
</linearGradient>
<path class="st49" d="M602.7,415.1c0-0.2,0-0.5,0-0.7C602.7,414.7,602.7,414.9,602.7,415.1z"/>
<linearGradient id="SVGID_28_" gradientUnits="userSpaceOnUse" x1="602.7841" y1="606.788" x2="926.876" y2="606.788" gradientTransform="matrix(1 0 0 -1 0 1080)">
	<stop  offset="0" style="stop-color:#9DDBFD"/>
	<stop  offset="0.1" style="stop-color:#46A5DE"/>
	<stop  offset="0.4" style="stop-color:#46A5DE"/>
	<stop  offset="0.6" style="stop-color:#236995"/>
	<stop  offset="0.9" style="stop-color:#236995"/>
	<stop  offset="1" style="stop-color:#15506D"/>
</linearGradient>
<path class="st50" d="M926.9,415.3L926.9,415.3c0.2,3.4-1.8,7.3-8.5,11.1L784,504c0,0-19.2,11.1-38.3,0l-115.2-66.4l-19.2-11.1
	c0,0-8.3-4.8-8.5-11.2v22.3c0.3,6.4,8.5,11.2,8.5,11.2l19.2,11.1l115.2,66.4c19.2,11.1,38.3,0,38.3,0l134.3-77.6
	c6.8-3.8,8.8-7.8,8.5-11.2l0,0L926.9,415.3z"/>
<path class="st51" d="M690,414.5l-10.7-6.2c0,0-10.7-6.2,0-12.4L754,353c6.6-3.9,14.7-3.9,21.3,0c11.2,6.5,74.7,43.1,74.7,43.1
	s10.7,6.2,0,12.3l-74.7,43.1c0,0-10.7,6.2-21.3,0L690,414.5z"/>
<g>
	
		<linearGradient id="SVGID_29_" gradientUnits="userSpaceOnUse" x1="675.9626" y1="703.0412" x2="853.6072" y2="703.0412" gradientTransform="matrix(1 0 0 -1 0 1080)">
		<stop  offset="0" style="stop-color:#616E7C"/>
		<stop  offset="0.1" style="stop-color:#85909E"/>
		<stop  offset="0.4" style="stop-color:#85909E"/>
		<stop  offset="0.6" style="stop-color:#DFE4EA"/>
		<stop  offset="0.9" style="stop-color:#DFE4EA"/>
		<stop  offset="1" style="stop-color:#FFFFFF"/>
	</linearGradient>
	<path class="st52" d="M849.5,393.8c0,0-63.5-36.5-74.7-42.9c-3-1.8-6.5-2.7-10-2.7c-3.5,0-7,0.9-10,2.7c-0.2,0.1-8.4,4.8-19.4,11.1
		l-55.4,31.8c-2.7,1.6-4.1,3.2-4.1,4.8v6.7c0-1.6,1.4-3.2,4.1-4.8l55.3-31.8l19.4-11.1c3.1-1.7,6.5-2.7,10-2.7c3.5,0,7,1,10,2.7
		c11.2,6.4,74.7,42.9,74.7,42.9c1.1,0.7,4.1,2.9,4.1,5.3V399C853.6,396.7,850.7,394.5,849.5,393.8z"/>
	<path class="st3" d="M850.8,391.5c0.2,0.1,5.4,3.1,5.4,7.4c0,2.6-1.8,5-5.4,7l-74.7,42.9c-3.6,1.9-7.6,2.9-11.7,2.9
		c-3.8,0-7.6-1-10.9-2.9L678.8,406c-0.2-0.1-5.4-3.2-5.4-7.5c0-2.6,1.8-5,5.4-7l55.3-31.7l19.3-11.1c3.5-2,7.4-3,11.4-3.1
		c3.9,0,7.8,1.1,11.2,3.1L850.8,391.5z M849.5,403.8c2.7-1.6,4.1-3.2,4.1-4.8c0-2.4-3-4.6-4.1-5.3c0,0-63.5-36.5-74.7-42.9
		c-3-1.8-6.5-2.7-10-2.7c-3.5,0-7,0.9-10,2.7c-0.2,0.1-8.4,4.8-19.4,11.1l-55.4,31.8c-2.7,1.6-4.1,3.2-4.1,4.8c0,2.4,3,4.6,4.1,5.3
		l74.7,42.9c2.9,1.7,6.3,2.6,9.6,2.6c3.6,0,7.2-0.9,10.4-2.6L849.5,403.8"/>
	
		<linearGradient id="SVGID_30_" gradientUnits="userSpaceOnUse" x1="673.4202" y1="651.447" x2="856.1877" y2="651.447" gradientTransform="matrix(1 0 0 -1 0 1080)">
		<stop  offset="0" style="stop-color:#FFFFFF"/>
		<stop  offset="0.1" style="stop-color:#DFE4EA"/>
		<stop  offset="0.4" style="stop-color:#DFE4EA"/>
		<stop  offset="0.6" style="stop-color:#85909E"/>
		<stop  offset="0.9" style="stop-color:#85909E"/>
		<stop  offset="1" style="stop-color:#616E7C"/>
	</linearGradient>
	<path class="st53" d="M850.8,406l-74.7,42.9c-3.6,1.9-7.6,2.9-11.7,2.9c-3.8,0-7.6-1-10.9-2.9L678.8,406c-0.2-0.1-5.4-3.2-5.4-7.5
		v6.7c0,4.3,5.1,7.4,5.4,7.5l74.7,42.9c3.3,1.9,7.1,2.9,10.9,2.9c4.1,0,8.1-1,11.7-2.9l74.7-42.9c3.6-2,5.4-4.4,5.4-7V399
		C856.2,401.7,854.4,404,850.8,406z"/>
</g>
<polygon class="st4" points="880,590.5 995.1,656.9 995.1,701.3 880,634.8 "/>
<polygon class="st3" points="822.4,512.9 899.1,579.4 899.1,535.1 822.4,468.3 "/>
<polygon class="st44" points="822.5,504 899.2,570.5 899.1,548.3 822.4,481.8 "/>
<polygon class="st4" points="899.1,535 1014.3,601.5 1014.3,645.8 899.1,579.4 "/>
<polygon class="st3" points="880,590.5 899.1,579.4 1014.3,645.8 995.1,656.9 "/>
<polygon class="st3" points="899.1,535 918.3,524 937.5,535 995.1,501.8 995.1,479.6 1014.3,468.6 1129.4,535 1014.3,601.5 "/>
<polygon class="st54" points="879.9,590.5 899.1,535.1 918.4,546.2 899.2,601.6 "/>
<polygon class="st3" points="1129.4,557.2 1148.6,568.3 1129.4,579.4 "/>
<polygon class="st2" points="1014.1,645.8 1014.1,601.5 1129.3,535 1129.3,579.3 1148.5,568.2 1148.5,612.5 1033.2,679.1 
	994.9,701.2 994.9,656.8 "/>
<polygon class="st46" points="1033.5,628.1 1033.5,670.6 1103,630.4 1110.3,583.8 "/>
<polygon class="st4" points="899.1,601.8 899.1,579.4 975.9,623.7 975.8,645.8 "/>
<polygon class="st3" points="918.3,568.3 995.2,612.6 975.9,623.7 899.1,579.4 "/>
<polygon class="st2" points="975.8,645.8 975.9,623.7 995.2,612.6 994.9,634.9 "/>
<polygon class="st4" points="995.1,479.6 1014.3,490.7 995.1,501.8 "/>
<polygon class="st54" points="975.8,645.8 994.9,590.4 1014.1,601.5 994.9,656.8 "/>
<polygon class="st2" points="994.9,656.8 1014.3,645.8 1014.1,601.5 "/>
<polygon class="st2" points="908.7,573.8 918.3,568.3 918.3,546.1 "/>
<linearGradient id="SVGID_31_" gradientUnits="userSpaceOnUse" x1="955.0427" y1="550.0872" x2="1073.8833" y2="550.0872" gradientTransform="matrix(1 0 0 -1 0 1080)">
	<stop  offset="0" style="stop-color:#FFFFFF"/>
	<stop  offset="0.1" style="stop-color:#DFE4EA"/>
	<stop  offset="0.4" style="stop-color:#DFE4EA"/>
	<stop  offset="0.6" style="stop-color:#85909E"/>
	<stop  offset="0.9" style="stop-color:#85909E"/>
	<stop  offset="1" style="stop-color:#616E7C"/>
</linearGradient>
<path class="st55" d="M1073.9,525.8c-0.2-2.3-3.1-4-3.1-4s-41.9-24.2-49.3-28.4c-4.3-2.5-9.7-2.5-14.1,0l-49.3,28.5
	c-2.4,1.4-3.2,2.8-3.1,4v8.1c0.1,2.4,3.1,4.1,3.1,4.1l7,4.1l42.2,24.4c7,4.1,14.1,0,14.1,0l49.3-28.5c2.6-1.4,3.2-2.9,3.1-4.1l0,0"
	/>
<path class="st3" d="M965.1,534.1l-7-4.1c0,0-7-5.1,0-9.1s49-28.3,49.3-28.4c4.3-2.6,9.7-2.6,14.1,0c7.4,4.3,49.3,28.4,49.3,28.4
	s7,5.1,0,9.1l-49.3,28.4c0,0-7,4.1-14.1,0L965.1,534.1z"/>
<linearGradient id="SVGID_32_" gradientUnits="userSpaceOnUse" x1="955.1322" y1="558.1657" x2="1073.9799" y2="558.1657" gradientTransform="matrix(1 0 0 -1 0 1080)">
	<stop  offset="0" style="stop-color:#9DDBFD"/>
	<stop  offset="0.1" style="stop-color:#46A5DE"/>
	<stop  offset="0.4" style="stop-color:#46A5DE"/>
	<stop  offset="0.6" style="stop-color:#236995"/>
	<stop  offset="0.9" style="stop-color:#236995"/>
	<stop  offset="1" style="stop-color:#15506D"/>
</linearGradient>
<path class="st56" d="M1074,517.8c-0.2-2.3-3.1-4-3.1-4s-41.9-24.2-49.3-28.4c-4.3-2.5-9.7-2.5-14.1,0l-49.3,28.4
	c-2.4,1.4-3.2,2.8-3.1,4v8.1c0.1,2.4,3.1,4.1,3.1,4.1l7,4.1l42.2,24.4c7,4.1,14.1,0,14.1,0l49.3-28.4c2.5-1.4,3.2-2.9,3.1-4.1l0,0"
	/>
<path class="st3" d="M965.2,526l-7-4.1c0,0-7-5.1,0-9.1l49.3-28.4c4.3-2.5,9.7-2.5,14.1,0c7.4,4.3,49.3,28.4,49.3,28.4s7,5,0,9.1
	l-49.3,28.5c0,0-7,4.1-14.1,0L965.2,526z"/>
<linearGradient id="SVGID_33_" gradientUnits="userSpaceOnUse" x1="955.1962" y1="565.9195" x2="1074.024" y2="565.9195" gradientTransform="matrix(1 0 0 -1 0 1080)">
	<stop  offset="0" style="stop-color:#FFFFFF"/>
	<stop  offset="0.1" style="stop-color:#DFE4EA"/>
	<stop  offset="0.4" style="stop-color:#DFE4EA"/>
	<stop  offset="0.6" style="stop-color:#85909E"/>
	<stop  offset="0.9" style="stop-color:#85909E"/>
	<stop  offset="1" style="stop-color:#616E7C"/>
</linearGradient>
<path class="st57" d="M1074,510c-0.2-2.3-3.1-4-3.1-4s-41.9-24.2-49.3-28.4c-4.3-2.5-9.7-2.5-14.1,0L958.3,506
	c-2.4,1.4-3.2,2.8-3.1,4v8.1c0.1,2.4,3.1,4.1,3.1,4.1l7,4.1l42.2,24.4c7,4.1,14.1,0,14.1,0l49.3-28.5c2.5-1.4,3.2-2.9,3.1-4.1l0,0"
	/>
<path class="st3" d="M965.3,518.3l-7-4.1c0,0-7-5.1,0-9.1l49.3-28.4c4.3-2.5,9.7-2.5,14.1,0l49.3,28.4c0,0,7,5.1,0,9.1l-49.3,28.4
	c0,0-7,4.1-14.1,0L965.3,518.3z"/>
<polygon class="st44" points="942.4,670.8 942.4,609.8 951.9,615.2 952.1,676.4 "/>
<polygon class="st44" points="923.2,659.7 923.2,598.7 932.8,604.1 932.9,665.2 "/>
<polygon class="st44" points="904,648.7 904,587.7 913.5,593.1 913.6,654.3 "/>
<polygon class="st44" points="961.5,682 961.5,621 971.1,626.5 971.2,687.6 "/>
<polygon class="st2" points="1129.3,535 1148.5,568.2 1129.3,579.3 "/>
<polygon class="st4" points="1110.3,583.8 1110.3,634.6 1103,630.4 "/>
<path class="st58" d="M1033.5,670.6l69.5-40.1l7.3,4.2l-76.8,44.3L1033.5,670.6z"/>
<polygon class="st59" points="918.3,523.9 841.5,457.2 822.4,468.3 899.1,535.1 "/>
<polygon class="st4" points="476.8,512.9 515.2,535.1 515.2,579.4 476.8,557.3 "/>
<polygon class="st2" points="515.2,535.1 534.4,524 534.4,568.3 515.2,579.4 "/>
<polygon class="st3" points="476.8,512.9 496,501.9 534.4,524 515.2,535.1 "/>
<linearGradient id="SVGID_34_" gradientUnits="userSpaceOnUse" x1="473.3341" y1="476.3771" x2="441.8483" y2="530.9091" gradientTransform="matrix(1 0 0 -1 0 1080)">
	<stop  offset="0" style="stop-color:#236995"/>
	<stop  offset="0.46" style="stop-color:#236995"/>
	<stop  offset="1" style="stop-color:#9DDBFD"/>
</linearGradient>
<path class="st60" d="M495.8,524.1c-3.7-2.2-6.8-2.2-9.2-0.9l0,0l-0.3,0.2l-76.2,44.1c-9.9,5.4-9.9,34.1-9.9,34.1l38.3,22.2
	l76.7-44.3C515.2,579.4,514.9,535.3,495.8,524.1z"/>
<polygon class="st4" points="380.9,568.3 419.3,590.5 419.3,634.8 380.9,612.6 "/>
<polygon class="st2" points="419.3,590.5 438.5,579.4 438.5,623.7 419.3,634.8 "/>
<polygon class="st3" points="380.9,568.3 400.1,557.2 438.5,579.4 419.3,590.5 "/>
<polygon class="st44" points="405.6,626.8 405.6,601.3 394.6,594.9 394.5,620.5 "/>
<polygon class="st4" points="534.6,546.3 573,568.5 573,612.8 534.6,590.6 "/>
<polygon class="st2" points="573,568.5 592.2,557.4 592.2,601.7 573,612.8 "/>
<polygon class="st3" points="534.6,546.3 553.8,535.2 592.2,557.4 573,568.5 "/>
<linearGradient id="SVGID_35_" gradientUnits="userSpaceOnUse" x1="531.1153" y1="442.9848" x2="499.6289" y2="497.54" gradientTransform="matrix(1 0 0 -1 0 1080)">
	<stop  offset="0" style="stop-color:#236995"/>
	<stop  offset="0.46" style="stop-color:#236995"/>
	<stop  offset="1" style="stop-color:#9DDBFD"/>
</linearGradient>
<path class="st61" d="M553.6,557.5c-3.7-2.2-6.7-2.2-9.2-0.9l0,0c-0.1,0.1-0.2,0.1-0.3,0.2l-76.2,44.1c-9.9,5.4-9.9,34.1-9.9,34.1
	l38.3,22.2l76.7-44.3C573,612.8,572.7,568.7,553.6,557.5z"/>
<polygon class="st4" points="438.7,601.7 477.1,623.9 477.1,668.2 438.7,646 "/>
<polygon class="st2" points="477.1,623.9 496.3,612.8 496.3,657.1 477.1,668.2 "/>
<polygon class="st3" points="438.7,601.7 457.9,590.6 496.3,612.8 477.1,623.9 "/>
<polygon class="st44" points="463.4,660.2 463.4,634.6 452.4,628.3 452.3,653.8 "/>
<polygon class="st4" points="592.1,579.4 630.5,601.5 630.5,645.8 592.1,623.7 "/>
<polygon class="st2" points="630.5,601.5 649.7,590.4 649.7,634.8 630.5,645.8 "/>
<polygon class="st3" points="592.1,579.4 611.3,568.3 649.7,590.4 630.5,601.5 "/>
<linearGradient id="SVGID_36_" gradientUnits="userSpaceOnUse" x1="588.6676" y1="409.959" x2="557.1809" y2="464.4798" gradientTransform="matrix(1 0 0 -1 0 1080)">
	<stop  offset="0" style="stop-color:#236995"/>
	<stop  offset="0.46" style="stop-color:#236995"/>
	<stop  offset="1" style="stop-color:#9DDBFD"/>
</linearGradient>
<path class="st62" d="M611.2,590.5c-3.7-2.2-6.8-2.2-9.2-0.9l0,0l-0.3,0.2l-76.2,44.1c-9.9,5.4-9.9,34.1-9.9,34.1l38.3,22.2
	l76.7-44.3C630.5,645.8,630.2,601.7,611.2,590.5z"/>
<polygon class="st4" points="496.3,634.7 534.7,656.9 534.7,701.2 496.3,679.1 "/>
<polygon class="st2" points="534.7,656.9 553.9,645.8 553.9,690.1 534.7,701.2 "/>
<polygon class="st3" points="496.3,634.7 515.5,623.7 553.9,645.8 534.7,656.9 "/>
<polygon class="st44" points="520.9,693.3 520.9,667.7 509.9,661.3 509.8,686.9 "/>
<polygon class="st4" points="649.5,612.6 687.9,634.7 687.9,679.1 649.5,656.9 "/>
<polygon class="st2" points="687.9,634.7 707.1,623.7 707.1,668 687.9,679.1 "/>
<polygon class="st3" points="649.5,612.6 668.7,601.5 707.1,623.7 687.9,634.7 "/>
<linearGradient id="SVGID_37_" gradientUnits="userSpaceOnUse" x1="646.006" y1="376.7179" x2="614.5212" y2="431.2704" gradientTransform="matrix(1 0 0 -1 0 1080)">
	<stop  offset="0" style="stop-color:#236995"/>
	<stop  offset="0.46" style="stop-color:#236995"/>
	<stop  offset="1" style="stop-color:#9DDBFD"/>
</linearGradient>
<path class="st63" d="M668.5,623.8c-3.7-2.2-6.7-2.2-9.2-0.9l0,0c-0.1,0.1-0.2,0.1-0.3,0.2l-76.2,44.1c-9.9,5.4-9.9,34.1-9.9,34.1
	l38.3,22.2l76.7-44.3C687.9,679.1,687.6,634.9,668.5,623.8z"/>
<polygon class="st4" points="553.6,668 592,690.1 592,734.4 553.6,712.3 "/>
<polygon class="st2" points="592,690.1 611.2,679 611.2,723.4 592,734.4 "/>
<polygon class="st3" points="553.6,668 572.8,656.9 611.2,679 592,690.1 "/>
<polygon class="st44" points="578.3,726.5 578.3,700.9 567.3,694.5 567.2,720.1 "/>
<polygon class="st64" points="1033.5,612.6 1110.3,568.3 1091.1,535 1014.3,579.4 1033.5,590.5 "/>
<polygon class="st65" points="918.3,546.1 994.9,590.4 985.7,618.1 908.7,573.8 "/>
<polygon class="st4" points="1091.1,535 1110.3,546.1 1110.3,568.3 "/>
<polyline class="st66" points="899.1,734.5 784.1,668.1 750.6,678.1 860.8,742 "/>
<polygon class="st3" points="654.3,733.6 750.6,678.1 860.8,742 764.8,797.4 "/>
<g>
	
		<linearGradient id="SVGID_38_" gradientUnits="userSpaceOnUse" x1="2957.5039" y1="338.8703" x2="3083.0752" y2="338.8703" gradientTransform="matrix(-1 0 0 -1 3777.23 1080)">
		<stop  offset="0" style="stop-color:#85909E"/>
		<stop  offset="0.25" style="stop-color:#85909E"/>
		<stop  offset="0.75" style="stop-color:#DFE4EA"/>
		<stop  offset="1" style="stop-color:#DFE4EA"/>
	</linearGradient>
	<path class="st67" d="M707.6,727.6l32.7,19c18.1,10.5,47.5,10.5,65.7,0c9.1-5.3,13.7-12.2,13.7-19.2v19.1c0,6.9-4.6,13.9-13.7,19.2
		c-18.2,10.5-47.6,10.5-65.7,0l-32.7-19c-8.9-5.2-13.5-12-13.5-18.9v-19.2C694.1,715.6,698.6,722.4,707.6,727.6z"/>
	<path class="st3" d="M707.8,689.6c-18.2,10.5-18.3,27.5-0.2,38l32.7,19c18.1,10.5,47.5,10.5,65.7,0c18.2-10.5,18.3-27.5,0.2-38
		l-32.7-19C755.4,679.1,726,679.1,707.8,689.6z"/>
</g>
<g>
	
		<linearGradient id="SVGID_39_" gradientUnits="userSpaceOnUse" x1="2965.1565" y1="361.9222" x2="3075.384" y2="361.9222" gradientTransform="matrix(-1 0 0 -1 3777.23 1080)">
		<stop  offset="0" style="stop-color:#236995"/>
		<stop  offset="0.25" style="stop-color:#236995"/>
		<stop  offset="0.75" style="stop-color:#46A5DE"/>
		<stop  offset="1" style="stop-color:#46A5DE"/>
	</linearGradient>
	<path class="st68" d="M713.7,706.2l28.7,16.7c15.9,9.2,41.7,9.2,57.6,0c8-4.6,12-10.7,12-16.8v16.8c0,6.1-4,12.2-12,16.8
		c-16,9.2-41.8,9.2-57.6,0L713.7,723c-7.9-4.6-11.8-10.6-11.8-16.6v-16.8C701.8,695.6,705.8,701.6,713.7,706.2z"/>
	<path class="st3" d="M713.8,672.8c-16,9.2-16,24.2-0.2,33.4l28.7,16.7c15.9,9.2,41.7,9.2,57.6,0c16-9.2,16-24.2,0.2-33.4
		l-28.7-16.7C755.6,663.7,729.8,663.7,713.8,672.8z"/>
</g>
<g>
	
		<linearGradient id="SVGID_40_" gradientUnits="userSpaceOnUse" x1="2957.5293" y1="382.4239" x2="3083.1643" y2="382.4239" gradientTransform="matrix(-1 0 0 -1 3777.23 1080)">
		<stop  offset="0" style="stop-color:#85909E"/>
		<stop  offset="0.25" style="stop-color:#85909E"/>
		<stop  offset="0.75" style="stop-color:#DFE4EA"/>
		<stop  offset="1" style="stop-color:#DFE4EA"/>
	</linearGradient>
	<path class="st69" d="M707.6,684l32.7,19c18.1,10.5,47.5,10.5,65.7,0c9.2-5.3,13.7-12.2,13.7-19.2V703c0,6.9-4.6,13.9-13.7,19.2
		c-18.2,10.5-47.6,10.5-65.7,0l-32.7-19c-8.9-5.2-13.5-12-13.5-18.9v-19.2C694.1,671.9,698.6,678.8,707.6,684z"/>
	<path class="st3" d="M707.8,645.9c-18.2,10.5-18.3,27.5-0.2,38l32.7,19c18.1,10.5,47.5,10.5,65.7,0c18.2-10.5,18.3-27.5,0.2-38
		l-32.7-19C755.4,635.4,726,635.4,707.8,645.9z"/>
</g>
<g>
	
		<linearGradient id="SVGID_41_" gradientUnits="userSpaceOnUse" x1="2965.1309" y1="406.83" x2="3075.3457" y2="406.83" gradientTransform="matrix(-1 0 0 -1 3777.23 1080)">
		<stop  offset="0" style="stop-color:#236995"/>
		<stop  offset="0.25" style="stop-color:#236995"/>
		<stop  offset="0.75" style="stop-color:#46A5DE"/>
		<stop  offset="1" style="stop-color:#46A5DE"/>
	</linearGradient>
	<path class="st70" d="M713.7,661.3l28.7,16.7c15.9,9.2,41.7,9.2,57.6,0c8-4.6,12-10.7,12-16.8v16.8c0,6.1-4,12.2-12,16.8
		c-16,9.2-41.8,9.2-57.6,0l-28.7-16.7c-7.9-4.6-11.8-10.6-11.8-16.6v-16.8C701.9,650.7,705.8,656.7,713.7,661.3z"/>
	<path class="st3" d="M713.9,627.9c-16,9.2-16.1,24.2-0.2,33.4l28.7,16.7c15.9,9.2,41.7,9.2,57.6,0c16-9.2,16-24.2,0.2-33.4
		l-28.7-16.7C755.7,618.7,729.9,618.7,713.9,627.9z"/>
</g>
<g>
	
		<linearGradient id="SVGID_42_" gradientUnits="userSpaceOnUse" x1="2957.4526" y1="427.3475" x2="3083.0366" y2="427.3475" gradientTransform="matrix(-1 0 0 -1 3777.23 1080)">
		<stop  offset="0" style="stop-color:#85909E"/>
		<stop  offset="0.25" style="stop-color:#85909E"/>
		<stop  offset="0.75" style="stop-color:#DFE4EA"/>
		<stop  offset="1" style="stop-color:#DFE4EA"/>
	</linearGradient>
	<path class="st71" d="M707.6,639.1l32.7,19c18.1,10.5,47.5,10.5,65.7,0c9.2-5.3,13.7-12.2,13.7-19.2v19.2c0,6.9-4.5,13.9-13.7,19.2
		c-18.2,10.5-47.6,10.5-65.7,0l-32.7-19.1c-8.9-5.2-13.5-12-13.5-18.9v-19.1C694.2,627,698.7,633.8,707.6,639.1z"/>
	<path class="st3" d="M707.9,601.1c-18.2,10.5-18.3,27.5-0.2,38l32.7,19c18.1,10.5,47.5,10.5,65.7,0c18.2-10.5,18.3-27.5,0.2-38
		l-32.7-19C755.5,590.5,726.1,590.5,707.9,601.1z"/>
</g>
<polygon class="st4" points="654.3,733.6 764.8,797.4 764.8,834.2 654.3,770.3 "/>
<polygon class="st2" points="764.8,797.4 860.8,742 860.8,778.8 764.8,834.2 "/>
<polygon class="st2" points="860.8,778.8 899.1,756.6 899.1,734.5 860.8,742 "/>
<polygon class="st46" points="880,767.7 880,760.3 860.8,756.7 764.8,812.1 764.8,834.2 "/>
<polygon class="st44" points="654.3,748.5 764.8,812.1 764.8,834.2 654.3,770.3 "/>
<line class="st41" x1="311.6" y1="626.4" x2="311.6" y2="603.8"/>
<circle class="st4" cx="311.5" cy="595.6" r="18"/>
<line class="st41" x1="937.7" y1="802" x2="937.7" y2="779.4"/>
<ellipse transform="matrix(0.1602 -0.9871 0.9871 0.1602 26.2611 1573.1388)" class="st4" cx="937.6" cy="771.1" rx="18" ry="18"/>
<line class="st41" x1="1110.3" y1="702.1" x2="1110.3" y2="679.5"/>
<circle class="st4" cx="1110.3" cy="671.3" r="18"/>
<line class="st41" x1="1225.5" y1="590" x2="1225.5" y2="567.4"/>
<path class="st4" d="M1224.5,530.6l-11.9,35.2c-2.4,7.1,1.4,14.8,8.5,17.2c1.4,0.5,2.8,0.7,4.3,0.7l0,0c7.5,0,13.6-6.1,13.6-13.6
	c0-1.5-0.2-2.9-0.7-4.3l-11.9-35.2c-0.2-0.5-0.8-0.7-1.3-0.5C1224.8,530.2,1224.6,530.3,1224.5,530.6z"/>
<line class="st41" x1="572.7" y1="788" x2="572.7" y2="761.2"/>
<path class="st4" d="M571.5,717.7l-14.1,41.6c-2.8,8.4,1.7,17.5,10.1,20.3c1.6,0.6,3.4,0.8,5.1,0.8l0,0c8.8,0,16-7.2,16-16
	c0-1.7-0.3-3.5-0.8-5.1l-14.1-41.6c-0.2-0.6-0.8-1-1.5-0.8C571.9,717,571.6,717.3,571.5,717.7z"/>
<line class="st41" x1="1167.9" y1="689.7" x2="1167.9" y2="667.1"/>
<circle class="st4" cx="1167.8" cy="658.8" r="18"/>
<line class="st41" x1="246.2" y1="623.1" x2="246.2" y2="600.5"/>
<path class="st4" d="M245.3,563.6l-12,35.2c-2.4,7.1,1.5,14.8,8.6,17.2c1.4,0.5,2.8,0.7,4.3,0.7l0,0c7.4,0,13.5-5.9,13.5-13.4
	c0-1.5-0.2-3.1-0.8-4.5l-11.8-35.3c-0.2-0.5-0.8-0.7-1.3-0.5C245.6,563.1,245.4,563.3,245.3,563.6z"/>
<line class="st41" x1="783.7" y1="911.8" x2="783.7" y2="889.2"/>
<circle class="st4" cx="783.7" cy="880.9" r="18"/>
<line class="st41" x1="726" y1="899.5" x2="726" y2="876.9"/>
<path class="st4" d="M725.1,840l-11.9,35.2c-2.4,7.1,1.4,14.8,8.5,17.2c1.4,0.5,2.8,0.7,4.3,0.7l0,0c7.5,0,13.6-6.1,13.6-13.6
	c0-1.5-0.2-2.9-0.7-4.3L726.9,840c-0.2-0.5-0.7-0.8-1.2-0.6C725.4,839.4,725.2,839.7,725.1,840z"/>
<line class="st41" x1="399.8" y1="710.7" x2="399.8" y2="688.1"/>
<path class="st4" d="M398.8,651.3l-11.9,35.2c-2.4,7.1,1.4,14.8,8.5,17.2c1.4,0.5,2.8,0.7,4.2,0.7l0,0c7.5,0,13.6-6.1,13.6-13.6
	c0-1.5-0.2-2.9-0.7-4.3l-11.8-35.2c-0.2-0.5-0.7-0.8-1.2-0.7C399.1,650.7,398.9,650.9,398.8,651.3z"/>
<polygon class="st39" points="764.8,944.9 1340.6,612.6 1340.6,634.7 765,967.2 "/>
<polygon class="st72" points="189,612.6 764.8,945 764.8,967.2 189,634.8 "/>
<linearGradient id="SVGID_43_" gradientUnits="userSpaceOnUse" x1="631.4104" y1="870.8221" x2="992.9332" y2="870.8221" gradientTransform="matrix(1 0 0 -1 0 1080)">
	<stop  offset="0.52" style="stop-color:#DAE0E6"/>
	<stop  offset="0.75" style="stop-color:#85909E"/>
</linearGradient>
<path class="st73" d="M992.9,225.5c0.4-6.8-3.7-14.4-17-22.1l-172.8-99.7c0,0-38.3-22.2-76.8,0l-77.8,44.9c0,0-16.3,9.5-17.1,22.1
	v22.2c-0.4,6.8,3.6,14.5,17.1,22.2c38.5,21.9,172.7,99.7,172.7,99.7s38.2,22,76.8,0s77.8-44.9,77.8-44.9s16.4-9.5,17-22.2
	L992.9,225.5z"/>
<path class="st3" d="M821.3,292.6c0,0,38.2,22,76.8,0s77.8-44.9,77.8-44.9s38.3-22.2,0-44.3l-172.8-99.7c0,0-38.3-22.2-76.8,0
	l-77.8,44.9c0,0-38.5,22.4,0,44.3C687.1,214.8,821.3,292.6,821.3,292.6z"/>
<linearGradient id="SVGID_44_" gradientUnits="userSpaceOnUse" x1="1035.8451" y1="631.9891" x2="1340.5552" y2="631.9891" gradientTransform="matrix(1 0 0 -1 0 1080)">
	<stop  offset="0.23" style="stop-color:#DAE0E6"/>
	<stop  offset="0.39" style="stop-color:#85909E"/>
</linearGradient>
<path class="st74" d="M1340.5,403.7c0.3-6.8-3.7-14.4-17-22.1c-38.3-22.2-39.3-22.8-39.3-22.8s-38.3-22.2-76.8,0S1053,448,1053,448
	s-16.3,9.5-17.1,22.1v22.2c-0.4,6.8,3.6,14.5,17.1,22.2c38.5,21.9,39.3,22.8,39.3,22.8s38.2,22,76.8,0
	c38.6-22,154.4-89.3,154.4-89.3s16.4-9.5,17-22.2V403.7z"/>
<path class="st3" d="M1092.3,515.1c0,0,38.2,22,76.8,0c38.6-22,154.4-89.3,154.4-89.3s38.3-22.2,0-44.3
	c-38.3-22.2-39.3-22.8-39.3-22.8s-38.3-22.2-76.8,0S1053,448,1053,448s-38.5,22.4,0,44.3C1091.5,514.3,1092.3,515.1,1092.3,515.1z"
	/>
<linearGradient id="SVGID_45_" gradientUnits="userSpaceOnUse" x1="190.6532" y1="653.8964" x2="417.73" y2="653.8964" gradientTransform="matrix(1 0 0 -1 0 1080)">
	<stop  offset="0.25" style="stop-color:#DAE0E6"/>
	<stop  offset="0.53" style="stop-color:#85909E"/>
</linearGradient>
<path class="st75" d="M417.7,404.2c0.3-6.8-3.7-14.4-17-22.1c-38.3-22.2-39.3-22.8-39.3-22.8s-38.3-22.2-76.8,0
	s-76.8,44.5-76.8,44.5s-16.3,9.5-17.1,22.1v22.2c-0.4,6.8,3.6,14.5,17.1,22.2c38.5,21.9,39.3,22.8,39.3,22.8s38.2,22,76.8,0
	c38.6-22,76.8-44.5,76.8-44.5s16.4-9.5,17-22.2L417.7,404.2z"/>
<path class="st3" d="M247.1,470.8c0,0,38.2,22,76.8,0c38.6-22,76.8-44.5,76.8-44.5s38.3-22.2,0-44.3s-39.3-22.8-39.3-22.8
	s-38.3-22.2-76.8,0s-76.8,44.5-76.8,44.5s-38.5,22.4,0,44.3C246.3,470,247.1,470.8,247.1,470.8z"/>
<polygon class="st9" points="764.7,989.3 764.8,967.2 1340.6,634.7 1340.6,657 "/>
<polygon class="st39" points="189,634.8 764.8,967.2 764.7,989.3 188.9,656.9 "/>
<polygon class="st3" points="1090.9,767.7 1359.6,612.6 1378.8,623.5 1090.9,790 "/>
<polygon class="st3" points="1014.1,789.9 1033.5,801 1091,767.7 1071.7,756.6 "/>
<polygon class="st4" points="1014.1,789.9 1033.5,801 1033.3,867.5 1014.1,856.5 "/>
<polygon class="st2" points="1091,767.7 1090.9,834.2 1033.3,867.5 1033.3,801 "/>
<polygon class="st3" points="150.3,623.7 169.5,612.6 764.5,956.1 1014.2,812.1 1033.4,823.2 764.6,978.3 "/>
<polygon class="st2" points="764.6,978.3 1033.4,823.2 1033.3,845.3 764.7,1000.4 "/>
<polygon class="st4" points="764.7,1000.4 764.6,978.3 150.3,623.7 150.2,646 "/>
<polygon class="st2" points="1090.9,790 1090.9,812.2 1378.8,645.8 1378.8,623.5 "/>
<polygon class="st3" points="1302,723.4 1513.1,845.3 1724.3,723.4 1513.1,601.5 "/>
<polygon class="st4" points="1302,723.4 1513.1,845.3 1513.1,867.5 1302,745.6 "/>
<polygon class="st2" points="1513.1,867.5 1724.3,745.6 1724.3,723.4 1513.1,845.3 "/>
<polygon class="st51" points="1331.5,728.2 1513.1,623.4 1695.2,728.4 1513.4,833.1 "/>
<polygon class="st4" points="1705.1,722.7 1694.9,728.6 1513.1,623.7 1513.1,611.8 "/>
<polygon class="st2" points="1321.2,722.6 1331.8,728.4 1513.1,623.7 1513.1,611.8 "/>
<polygon class="st3" points="1312,717.7 1513.1,833.3 1714.3,717.7 1724.3,723.4 1513.1,845.3 1302,723.4 "/>
<linearGradient id="SVGID_46_" gradientUnits="userSpaceOnUse" x1="1381.1279" y1="557.5936" x2="1457.9873" y2="424.4567" gradientTransform="matrix(1 0 0 -1 0 1080)">
	<stop  offset="0" style="stop-color:#9DDBFD;stop-opacity:0"/>
	<stop  offset="1" style="stop-color:#9DDBFD"/>
</linearGradient>
<polygon class="st76" points="1331.8,728.4 1321.2,722.6 1321.2,557.2 1512.8,446.4 1513.1,623.7 "/>
<linearGradient id="SVGID_47_" gradientUnits="userSpaceOnUse" x1="3325.1843" y1="424.5694" x2="3248.5073" y2="557.3804" gradientTransform="matrix(-1 0 0 -1 4893.29 1080)">
	<stop  offset="0" style="stop-color:#9DDBFD"/>
	<stop  offset="1" style="stop-color:#9DDBFD;stop-opacity:0"/>
</linearGradient>
<polygon class="st77" points="1694.9,728.6 1705.1,723 1705.1,557.6 1512.8,446.4 1513.1,623.7 "/>
<path class="st78" d="M1611,418.1l-65.7-37.9c-21.7-13-43.4-13-65,0l-65.7,37.9c-22.1,12.3-33,31-32.5,56.3v75.8
	c-0.4,25.3,10.4,44.1,32.5,56.3l65.7,37.9c21.7,13,43.4,13,65,0l65.7-37.9c22.1-12.3,33-31,32.5-56.3v-75.8
	C1644,449.1,1633.1,430.4,1611,418.1z M1552.9,459.2v-40.6l26.6,18.2V457c0,18-5.2,32.6-14.3,43.4c-6.8-5.3-14.4-9.3-22.6-12
	C1549.4,481.1,1552.9,471,1552.9,459.2z M1474.3,565.3v40.6l-26.6-18.2v-20.5c0-17.7,5.1-32.4,14.2-43.2c6.8,5.3,14.5,9.4,22.7,12.1
	C1477.8,543.3,1474.3,553.5,1474.3,565.3z M1579.5,587.8l-26.6,18.2v-40.6c0-23.4-13.9-40.5-39.3-40.5l0,0
	c-44.2,0-65.9-32.9-65.9-64.4v-23.7l26.6-18.2v40.6c0,23.4,13.9,40.5,39.2,40.6l0,0c44.2,0,65.9,33,65.9,64.4L1579.5,587.8z"/>
<polygon class="st38" points="1302,745.6 1513.1,867.5 1513.1,889.6 1321.2,778.8 "/>
<polygon class="st39" points="1724.3,745.6 1705.1,778.8 1513.1,889.6 1513.1,867.5 "/>
<polygon class="st3" points="1378.7,767.7 1436.4,801 1417.1,812.1 1359.6,778.8 "/>
<polygon class="st2" points="1417.1,812.1 1436.4,801 1436.4,823.2 1455.6,856.4 1474.8,867.5 1436.4,889.6 1417.2,878.5 "/>
<polygon class="st4" points="1359.6,778.8 1417.1,812.1 1417.2,878.5 1359.6,845.3 "/>
<polygon class="st3" points="1647.5,767.7 1589.9,801 1609.2,812.1 1666.7,778.8 "/>
<polygon class="st4" points="1609.2,812.1 1589.9,801 1589.9,823.2 1570.7,856.4 1551.5,867.5 1589.9,889.6 1609.1,878.5 "/>
<polygon class="st2" points="1666.7,778.8 1609.2,812.1 1609.1,878.5 1666.6,845.3 "/>
<path class="st79" d="M2517.2,933h359.9c7.1,0,12.8,5.7,12.8,12.8v26c0,7.1-5.7,12.8-12.8,12.8h-359.9c-7.1,0-12.8-5.7-12.8-12.8
	v-26C2504.5,938.7,2510.2,933,2517.2,933z"/>
<path class="st78" d="M2518.1,974.1v-4.4h4.4v-21.9h-4.4v-4.4h13.1v4.4h-4.4v21.8h4.4v4.5H2518.1z"/>
<path class="st78" d="M2544.3,956.6v17.5h-4.4v-30.7h4.4v6.5h2.2v2.2h2.2v2.2h2.2v2.2h2.2v2.2h2.2v2.2h2.2v-17.5h4.4v30.7h-4.4v-6.5
	h-2.2v-2.2h-2.2v-2.2h-2.2V961h-2.2v-2.2h-2.2v-2.2H2544.3z"/>
<path class="st78" d="M2588,943.5v4.4h-17.5v8.7h13.1v4.4h-13.1v13.2h-4.4v-30.7H2588z"/>
<path class="st78" d="M2598.9,961h-2.2v13.1h-4.4v-30.7h17.5v2.2h2.2v2.2h2.2v8.7h-2.2v2.2h-2.2v2.2h-4.4v2.2h2.2v2.2h2.2v2.2h2.2
	v2.2h2.2v4.4h-4.4v-2.2h-2.2v-2.2h-2.2v-2.2h-2.2v-2.2h-2.2v-2.2h-2.2L2598.9,961z M2596.7,947.9v8.7h10.9v-2.2h2.2V950h-2.2v-2.2
	H2596.7z"/>
<path class="st78" d="M2622.9,974.1h-4.4v-21.9h2.2V950h2.2v-2.2h2.2v-2.2h2.2v-2.2h4.4v2.2h2.2v2.2h2.2v2.2h2.2v2.2h2.2v21.9h-4.4
	v-8.7h-13.1L2622.9,974.1z M2622.9,961h13.1v-6.6h-2.2v-2.2h-2.2v-2.2h-4.4v2.2h-2.2v2.2h-2.2L2622.9,961z"/>
<path class="st78" d="M2664.4,947.9h2.2v4.4h-4.4V950h-2.2v-2.2h-8.7v2.2h-2.1v4.4h2.2v2.2h10.9v2.2h2.2v2.2h2.2v8.7h-2.2v2.2h-2.2
	v2.2h-13.1v-2.2h-2.2v-2.2h-2.2v-4.4h4.4v2.2h2.2v2.2h8.7v-2.2h2.2v-4.4h-2.2V961h-10.9v-2.2h-2.2v-2.2h-2.2v-8.7h2.2v-2.2h2.2v-2.2
	h13.1v2.2h2.2L2664.4,947.9z"/>
<path class="st78" d="M2679.7,947.9h-8.7v-4.4h21.8v4.4h-8.7v26.3h-4.4V947.9z"/>
<path class="st78" d="M2703.7,961h-2.1v13.1h-4.4v-30.7h17.5v2.2h2.2v2.2h2.2v8.7h-2.2v2.2h-2.2v2.2h-4.4v2.2h2.2v2.2h2.2v2.2h2.2
	v2.2h2.2v4.4h-4.4v-2.2h-2.2v-2.2h-2.2v-2.2h-2.2v-2.2h-2.2v-2.2h-2.2L2703.7,961z M2701.6,947.9v8.7h10.9v-2.2h2.2V950h-2.2v-2.2
	H2701.6z"/>
<path class="st78" d="M2725.5,969.7h-2.2v-26.3h4.4v24h2.2v2.2h8.7v-2.2h2.2v-24h4.4v26.2h-2.2v2.2h-2.2v2.3h-13.1v-2.2h-2.2
	L2725.5,969.7z"/>
<path class="st78" d="M2756.1,969.7h8.7v-2.2h2.2v-2.2h4.4v4.4h-2.1v2.2h-2.2v2.2h-13.1v-2.2h-2.2v-2.2h-2.2v-21.9h2.2v-2.2h2.2
	v-2.2h13.1v2.2h2.2v2.2h2.2v4.4h-4.4V950h-2.2v-2.2h-8.7v2.2h-2.2v17.5h2.2L2756.1,969.7z"/>
<path class="st78" d="M2784.5,947.9h-8.7v-4.4h21.8v4.4h-8.7v26.3h-4.4V947.9z"/>
<path class="st78" d="M2804.1,969.7h-2.2v-26.3h4.4v24h2.2v2.2h8.7v-2.2h2.2v-24h4.4v26.2h-2.1v2.2h-2.2v2.3h-13.1v-2.2h-2.2V969.7z
	"/>
<path class="st78" d="M2834.7,961h-2.2v13.1h-4.4v-30.7h17.5v2.2h2.2v2.2h2.2v8.7h-2.2v2.2h-2.2v2.2h-4.4v2.2h2.2v2.2h2.2v2.2h2.2
	v2.2h2.2v4.4h-4.4v-2.2h-2.2v-2.2h-2.2v-2.2h-2.2v-2.2h-2.2v-2.2h-2.2L2834.7,961z M2832.5,947.9v8.7h10.9v-2.2h2.2V950h-2.2v-2.2
	H2832.5z"/>
<path class="st78" d="M2876.2,943.5v4.4h-17.5v8.7h13.1v4.4h-13.1v8.7h17.5v4.5h-21.8v-30.7H2876.2z"/>
<path class="st79" d="M60,176.8h415.4c7.1,0,12.8,5.7,12.8,12.8v26c0,7.1-5.7,12.8-12.8,12.8H60c-7.1,0-12.8-5.7-12.8-12.8v-26
	C47.3,182.6,53,176.8,60,176.8z"/>
<path class="st78" d="M64.7,217.9h-4.4v-30.6h4.4v4.4h2.2v2.2h2.2v2.2h4.4v-2.2h2.2v-2.2h2.2v-4.4h4.4v30.6h-4.4v-19.7h-2.2v2.2
	h-2.2v4.4H69v-4.4h-2.2v-2.2h-2.2V217.9z"/>
<path class="st78" d="M90.9,217.9h-4.4v-21.8h2.2v-2.2h2.2v-2.2h2.2v-2.2h2.2v-2.2h4.4v2.2h2.1v2.2h2.2v2.2h2.2v2.2h2.2v21.8h-4.4
	v-8.7H90.9V217.9z M90.9,204.8H104v-6.6h-2.2v-2.2h-2.2v-2.2h-4.4v2.2h-2.1v2.2h-2.2L90.9,204.8z"/>
<path class="st78" d="M117.1,200.4v17.5h-4.4v-30.6h4.4v6.6h2.2v2.2h2.2v2.2h2.2v2.2h2.2v2.2h2.2v2.2h2.2v-17.5h4.4v30.6h-4.4v-6.5
	H128v-2.2h-2.2V207h-2.2v-2.2h-2.2v-2.2h-2.2v-2.2L117.1,200.4z"/>
<path class="st78" d="M143.3,217.9h-4.4v-21.8h2.2v-2.2h2.2v-2.2h2.2v-2.2h2.2v-2.2h4.4v2.2h2.2v2.2h2.2v2.2h2.2v2.2h2.2v21.8h-4.4
	v-8.7h-13.1V217.9z M143.3,204.8h13.1v-6.6h-2.2v-2.2H152v-2.2h-4.4v2.2h-2.2v2.2h-2.2L143.3,204.8z"/>
<path class="st78" d="M184.8,191.7h2.2v4.4h-4.4v-2.2h-2.2v-2.2h-8.7v2.2h-2.2v17.5h2.2v2.2h8.7v-2.2h2.2v-6.6H176v-4.4h10.9v13.1
	h-2.1v2.2h-2.2v2.2h-13.1v-2.2h-2.2v-2.2h-2.2v-21.9h2.2v-2.2h2.2v-2.2h13.1v2.2h2.2V191.7z"/>
<path class="st78" d="M213.1,187.3v4.4h-17.5v8.7h13.1v4.4h-13.1v8.7h17.5v4.4h-21.8v-30.6H213.1z"/>
<path class="st78" d="M217.5,217.9v-30.6H235v2.2h2.2v2.2h2.2v21.8h-2.2v2.2H235v2.2L217.5,217.9z M221.8,191.7v21.8h10.9v-2.1h2.2
	v-17.5h-2.2v-2.2L221.8,191.7z"/>
<path class="st78" d="M289.5,191.7h2.2v4.4h-4.4v-2.2h-2.2v-2.2h-8.7v2.2h-2.2v4.4h2.2v2.2h10.9v2.2h2.2v2.2h2.2v8.7h-2.2v2.2h-2.2
	v2.2h-13.1v-2.2h-2.2v-2.2h-2.2v-4.4h4.4v2.2h2.2v2.2h8.7v-2.2h2.2V207h-2.2v-2.2h-10.9v-2.2h-2.2v-2.2h-2.2v-8.7h2.2v-2.2h2.2v-2.2
	h13.1v2.2h2.2V191.7z"/>
<path class="st78" d="M317.9,187.3v4.4h-17.5v8.7h13.1v4.4h-13.1v8.7h17.5v4.4h-21.8v-30.6H317.9z"/>
<path class="st78" d="M328.9,204.8h-2.2v13.1h-4.4v-30.6h17.5v2.2h2.1v2.2h2.2v8.7h-2.2v2.2h-2.2v2.2h-4.3v2.2h2.2v2.2h2.2v2.2h2.1
	v2.2h2.2v4.4h-4.4v-2.2h-2.2v-2.2h-2.1v-2.2h-2.2v-2.2H331V207h-2.2L328.9,204.8z M326.7,191.7v8.7h10.9v-2.2h2.2v-4.4h-2.2v-2.2
	L326.7,191.7z"/>
<path class="st78" d="M350.7,209.2h-2.2v-21.8h4.4V207h2.2v2.2h2.2v2.2h4.4v-2.2h2.2V207h2.2v-19.7h4.4v21.8h-2.2v2.2H366v2.2h-2.2
	v2.2h-2.2v2.2h-4.4v-2.2h-2.2v-2.2h-2.2v-2.2h-2.2L350.7,209.2z"/>
<path class="st78" d="M379.1,217.9v-4.4h4.4v-21.8h-4.4v-4.4h13.1v4.4h-4.4v21.8h4.4v4.4H379.1z"/>
<path class="st78" d="M407.4,213.5h8.7v-2.1h2.2v-2.2h4.4v4.4h-2.2v2.2h-2.2v2.2h-13.1v-2.2h-2.2v-2.2h-2.2v-21.9h2.2v-2.2h2.2v-2.2
	h13.1v2.2h2.2v2.2h2.2v4.4h-4.4v-2.2h-2.2v-2.2h-8.7v2.2h-2.2v17.5h2.2L407.4,213.5z"/>
<path class="st78" d="M448.9,187.3v4.4h-17.5v8.7h13.1v4.4h-13.1v8.7h17.5v4.4h-21.8v-30.6H448.9z"/>
<path class="st78" d="M472.9,191.7h2.2v4.4h-4.4v-2.2h-2.2v-2.2h-8.7v2.2h-2.2v4.4h2.2v2.2h10.9v2.2h2.2v2.2h2.2v8.7h-2.2v2.2h-2.2
	v2.2h-13.1v-2.2h-2.2v-2.2h-2.2v-4.4h4.4v2.2h2.2v2.2h8.7v-2.2h2.2V207h-2.2v-2.2h-10.9v-2.2h-2.2v-2.2h-2.2v-8.7h2.2v-2.2h2.2v-2.2
	h13.1v2.2h2.2V191.7z"/>
<line class="st0" x1="453.6" y1="813.9" x2="281.4" y2="913.9"/>
<line class="st1" x1="453.6" y1="813.9" x2="281.4" y2="913.9"/>
<path class="st79" d="M183.6,888.4h204.7c7.1,0,12.8,5.7,12.8,12.8v26c0,7.1-5.7,12.8-12.8,12.8H183.6c-7.1,0-12.8-5.7-12.8-12.8
	v-26C170.8,894.1,176.6,888.4,183.6,888.4z"/>
<path class="st78" d="M203,902.6h2.2v4.4h-4.4v-2.2h-2.2v-2.2h-8.8v2.2h-2.2v4.4h2.2v2.2h10.9v2.2h2.2v2.2h2.2v8.7H203v2.2h-2.2v2.2
	h-13.2v-2.2h-2.2v-2.2h-2.2V920h4.4v2.2h2.2v2.2h8.7v-2.2h2.2v-4.3h-2.2v-2.2h-10.9v-2.2h-2.2v-2.2h-2.2v-8.8h2.2v-2.2h2.2v-2.2
	h13.1v2.2h2.2L203,902.6z"/>
<path class="st78" d="M218.3,902.6h-8.7v-4.4h21.8v4.4h-8.7v26.2h-4.4V902.6z"/>
<path class="st78" d="M242.3,915.7h-2.2v13.1h-4.4v-30.6h17.5v2.2h2.2v2.2h2.2v8.7h-2.2v2.2h-2.2v2.2h-4.4v2.2h2.2v2.2h2.2v2.2h2.2
	v2.2h2.2v4.4h-4.4v-2.2H251v-2.2h-2.2v-2.2h-2.2V920h-2.2v-2.1h-2.2V915.7z M240.1,902.6v8.7H251v-2.2h2.2v-4.4H251v-2.2H240.1z"/>
<path class="st78" d="M266.3,928.8h-4.4v-21.8h2.2v-2.2h2.2v-2.2h2.2v-2.2h2.2v-2.2h4.4v2.2h2.2v2.2h2.2v2.2h2.2v2.2h2.2v21.8h-4.4
	V920h-13.1V928.8z M266.3,915.7h13.1v-6.6h-2.2v-2.2H275v-2.2h-4.4v2.2h-2.2v2.2h-2.2V915.7z"/>
<path class="st78" d="M296.9,902.6h-8.7v-4.4H310v4.4h-8.7v26.2h-4.4L296.9,902.6z"/>
<path class="st78" d="M336.2,898.2v4.4h-17.5v8.7h13.1v4.4h-13.1v8.7h17.5v4.4h-21.8v-30.5H336.2z"/>
<path class="st78" d="M360.2,902.6h2.2v4.4H358v-2.2h-2.2v-2.2h-8.7v2.2h-2.2v17.5h2.2v2.2h8.7v-2.2h2.2v-6.6h-6.5v-4.4h10.9v13.1
	h-2.2v2.2H358v2.2h-13.1v-2.2h-2.2v-2.2h-2.2v-21.8h2.2v-2.2h2.2v-2.2H358v2.2h2.2L360.2,902.6z"/>
<path class="st78" d="M379.8,928.8h-4.4v-10.9h-2.2v-2.2h-2.2v-2.2h-2.2v-2.2h-2.2v-13.1h4.4v10.9h2.2v2.2h2.2v2.2h4.4v-2.2h2.2
	v-2.2h2.2v-10.9h4.4v13.1h-2.2v2.2h-2.2v2.2H382v2.2h-2.2L379.8,928.8z"/>
<line class="st0" x1="2703.5" y1="135" x2="2531.3" y2="235"/>
<line class="st1" x1="2703.5" y1="135" x2="2531.3" y2="235"/>
<path class="st79" d="M2495.8,105.2h366.5c7.1,0,12.8,5.7,12.8,12.8v26c0,7.1-5.7,12.8-12.8,12.8h-366.5c-7.1,0-12.8-5.7-12.8-12.8
	v-26C2483,111,2488.7,105.2,2495.8,105.2z"/>
<path class="st78" d="M2504.4,141.9h8.7v-2.2h2.2v-2.2h4.4v4.4h-2.2v2.2h-2.2v2.1h-13.1v-2.2h-2.2v-2.2h-2.2v-21.8h2.2v-2.2h2.2
	v-2.2h13.1v2.2h2.2v2.2h2.2v4.4h-4.4v-2.2h-2.2v-2.2h-8.7v2.2h-2.2v17.5h2.2V141.9z"/>
<path class="st78" d="M2524,146.3v-30.5h4.4v26.2h17.5v4.3H2524z"/>
<path class="st78" d="M2554.6,117.9v-2.2h13.1v2.2h2.2v2.2h2.2v21.8h-2.2v2.2h-2.2v2.1h-13.1v-2.2h-2.2v-2.2h-2.2v-21.8h2.2v-2.2
	H2554.6z M2565.6,120.1h-8.7v2.2h-2.2v17.5h2.2v2.2h8.7v-2.2h2.2v-17.5h-2.2V120.1z"/>
<path class="st78" d="M2578.6,141.9h-2.2v-26.2h4.4v24h2.2v2.2h8.8v-2.2h2.2v-24h4.4v26.2h-2.2v2.2h-2.2v2.1h-13.1v-2.2h-2.2V141.9z
	"/>
<path class="st78" d="M2602.6,146.3v-30.5h17.5v2.2h2.2v2.2h2.2v21.8h-2.2v2.2h-2.2v2.1H2602.6z M2607,120.1v21.8h10.9v-2.2h2.2
	v-17.4h-2.2v-2.2L2607,120.1z"/>
<path class="st78" d="M2659.4,133.2v13.1h-4.4v-30.5h17.5v2.2h2.2v2.2h2.2v8.7h-2.2v2.2h-2.2v2.2L2659.4,133.2z M2659.4,120.1v8.7
	h10.9v-2.2h2.2v-4.4h-2.2v-2.2L2659.4,120.1z"/>
<path class="st78" d="M2681.2,146.3v-30.5h4.4v26.2h17.5v4.3H2681.2z"/>
<path class="st78" d="M2711.8,146.3h-4.4v-21.8h2.2v-2.2h2.2v-2.2h2.2v-2.2h2.2v-2.2h4.4v2.2h2.2v2.2h2.2v2.2h2.2v2.2h2.2v21.8h-4.4
	v-8.7h-13.1V146.3z M2711.8,133.2h13.1v-6.6h-2.2v-2.2h-2.2v-2.2h-4.4v2.2h-2.2v2.2h-2.2V133.2z"/>
<path class="st78" d="M2742.3,120.1h-8.7v-4.4h21.8v4.4h-8.7v26.2h-4.4V120.1z"/>
<path class="st78" d="M2781.7,115.7v4.4h-17.5v8.7h13.1v4.4h-13.1v13.1h-4.4v-30.5H2781.7z"/>
<path class="st78" d="M2790.4,117.9v-2.2h13.1v2.2h2.2v2.2h2.2v21.8h-2.2v2.2h-2.2v2.1h-13.1v-2.2h-2.2v-2.2h-2.2v-21.8h2.2v-2.2
	H2790.4z M2801.3,120.1h-8.7v2.2h-2.2v17.5h2.2v2.2h8.7v-2.2h2.2v-17.5h-2.2V120.1z"/>
<path class="st78" d="M2818.8,133.2h-2.2v13.1h-4.4v-30.5h17.5v2.2h2.2v2.2h2.2v8.7h-2.2v2.2h-2.2v2.2h-4.4v2.2h2.2v2.2h2.2v2.2h2.2
	v2.2h2.2v4.3h-4.4v-2.2h-2.2v-2.2h-2.2v-2.2h-2.2v-2.1h-2.2v-2.2h-2.2L2818.8,133.2z M2816.5,120.1v8.7h10.9v-2.2h2.2v-4.4h-2.2
	v-2.2L2816.5,120.1z"/>
<path class="st78" d="M2842.8,146.3h-4.4v-30.5h4.4v4.4h2.2v2.2h2.2v2.2h4.4v-2.2h2.2v-2.2h2.2v-4.4h4.4v30.5h-4.4v-19.6h-2.2v2.2
	h-2.2v4.4h-4.4v-4.4h-2.2v-2.2h-2.2L2842.8,146.3z"/>
</svg>
